  0
SECTION
  2
HEADER
  9
$ACADVER
  1
AC1015
  9
$ACADMAINTVER
 70
     6
  9
$DWGCODEPAGE
  3
ANSI_950
  9
$INSBASE
 10
0.0
 20
0.0
 30
0.0
  9
$EXTMIN
 10
-70.0
 20
-96.0
 30
0.0
  9
$EXTMAX
 10
70.0
 20
85.0
 30
0.0
  9
$LIMMIN
 10
0.0
 20
0.0
  9
$LIMMAX
 10
420.0
 20
297.0
  9
$ORTHOMODE
 70
     0
  9
$REGENMODE
 70
     1
  9
$FILLMODE
 70
     1
  9
$QTEXTMODE
 70
     0
  9
$MIRRTEXT
 70
     1
  9
$LTSCALE
 40
1.0
  9
$ATTMODE
 70
     1
  9
$TEXTSIZE
 40
3.5
  9
$TRACEWID
 40
1.0
  9
$TEXTSTYLE
  7
Standard
  9
$CLAYER
  8
0
  9
$CELTYPE
  6
ByLayer
  9
$CECOLOR
 62
   256
  9
$CELTSCALE
 40
1.0
  9
$DISPSILH
 70
     0
  9
$DIMSCALE
 40
1.0
  9
$DIMASZ
 40
3.302
  9
$DIMEXO
 40
0.0
  9
$DIMDLI
 40
3.75
  9
$DIMRND
 40
0.0
  9
$DIMDLE
 40
0.0
  9
$DIMEXE
 40
1.0
  9
$DIMTP
 40
0.0
  9
$DIMTM
 40
0.0
  9
$DIMTXT
 40
3.5
  9
$DIMCEN
 40
2.5
  9
$DIMTSZ
 40
0.0
  9
$DIMTOL
 70
     0
  9
$DIMLIM
 70
     0
  9
$DIMTIH
 70
     1
  9
$DIMTOH
 70
     1
  9
$DIMSE1
 70
     0
  9
$DIMSE2
 70
     0
  9
$DIMTAD
 70
     1
  9
$DIMZIN
 70
     1
  9
$DIMBLK
  1

  9
$DIMASO
 70
     1
  9
$DIMSHO
 70
     1
  9
$DIMPOST
  1

  9
$DIMAPOST
  1

  9
$DIMALT
 70
     0
  9
$DIMALTD
 70
     3
  9
$DIMALTF
 40
0.0393700787
  9
$DIMLFAC
 40
1.0
  9
$DIMTOFL
 70
     1
  9
$DIMTVP
 40
0.0
  9
$DIMTIX
 70
     0
  9
$DIMSOXD
 70
     0
  9
$DIMSAH
 70
     0
  9
$DIMBLK1
  1

  9
$DIMBLK2
  1

  9
$DIMSTYLE
  2
ISO-25
  9
$DIMCLRD
 70
     0
  9
$DIMCLRE
 70
     0
  9
$DIMCLRT
 70
     0
  9
$DIMTFAC
 40
1.0
  9
$DIMGAP
 40
1.524
  9
$DIMJUST
 70
     0
  9
$DIMSD1
 70
     0
  9
$DIMSD2
 70
     0
  9
$DIMTOLJ
 70
     0
  9
$DIMTZIN
 70
     1
  9
$DIMALTZ
 70
     0
  9
$DIMALTTZ
 70
     0
  9
$DIMUPT
 70
     0
  9
$DIMDEC
 70
     2
  9
$DIMTDEC
 70
     2
  9
$DIMALTU
 70
     2
  9
$DIMALTTD
 70
     3
  9
$DIMTXSTY
  7
Standard
  9
$DIMAUNIT
 70
     0
  9
$DIMADEC
 70
     2
  9
$DIMALTRND
 40
0.0
  9
$DIMAZIN
 70
     0
  9
$DIMDSEP
 70
    44
  9
$DIMATFIT
 70
     3
  9
$DIMFRAC
 70
     0
  9
$DIMLDRBLK
  1

  9
$DIMLUNIT
 70
     2
  9
$DIMLWD
 70
    -2
  9
$DIMLWE
 70
    -2
  9
$DIMTMOVE
 70
     0
  9
$LUNITS
 70
     2
  9
$LUPREC
 70
     2
  9
$SKETCHINC
 40
1.0
  9
$FILLETRAD
 40
0.0
  9
$AUNITS
 70
     0
  9
$AUPREC
 70
     2
  9
$MENU
  1
.
  9
$ELEVATION
 40
0.0
  9
$PELEVATION
 40
0.0
  9
$THICKNESS
 40
0.0
  9
$LIMCHECK
 70
     0
  9
$CHAMFERA
 40
0.0
  9
$CHAMFERB
 40
0.0
  9
$CHAMFERC
 40
0.0
  9
$CHAMFERD
 40
0.0
  9
$SKPOLY
 70
     0
  9
$TDCREATE
 40
2460869.081447616
  9
$TDUCREATE
 40
2460868.748114283
  9
$TDUPDATE
 40
2460869.081477767
  9
$TDUUPDATE
 40
2460868.748144433
  9
$TDINDWG
 40
0.0000000116
  9
$TDUSRTIMER
 40
0.0000000116
  9
$USRTIMER
 70
     1
  9
$ANGBASE
 50
0.0
  9
$ANGDIR
 70
     0
  9
$PDMODE
 70
     0
  9
$PDSIZE
 40
-1.0
  9
$PLINEWID
 40
0.0
  9
$SPLFRAME
 70
     0
  9
$SPLINETYPE
 70
     6
  9
$SPLINESEGS
 70
     8
  9
$HANDSEED
  5
1FF
  9
$SURFTAB1
 70
     6
  9
$SURFTAB2
 70
     6
  9
$SURFTYPE
 70
     6
  9
$SURFU
 70
     6
  9
$SURFV
 70
     6
  9
$UCSBASE
  2

  9
$UCSNAME
  2

  9
$UCSORG
 10
0.0
 20
0.0
 30
0.0
  9
$UCSXDIR
 10
1.0
 20
0.0
 30
0.0
  9
$UCSYDIR
 10
0.0
 20
1.0
 30
0.0
  9
$UCSORTHOREF
  2

  9
$UCSORTHOVIEW
 70
     0
  9
$UCSORGTOP
 10
0.0
 20
0.0
 30
0.0
  9
$UCSORGBOTTOM
 10
0.0
 20
0.0
 30
0.0
  9
$UCSORGLEFT
 10
0.0
 20
0.0
 30
0.0
  9
$UCSORGRIGHT
 10
0.0
 20
0.0
 30
0.0
  9
$UCSORGFRONT
 10
0.0
 20
0.0
 30
0.0
  9
$UCSORGBACK
 10
0.0
 20
0.0
 30
0.0
  9
$PUCSBASE
  2

  9
$PUCSNAME
  2

  9
$PUCSORG
 10
0.0
 20
0.0
 30
0.0
  9
$PUCSXDIR
 10
1.0
 20
0.0
 30
0.0
  9
$PUCSYDIR
 10
0.0
 20
1.0
 30
0.0
  9
$PUCSORTHOREF
  2

  9
$PUCSORTHOVIEW
 70
     0
  9
$PUCSORGTOP
 10
0.0
 20
0.0
 30
0.0
  9
$PUCSORGBOTTOM
 10
0.0
 20
0.0
 30
0.0
  9
$PUCSORGLEFT
 10
0.0
 20
0.0
 30
0.0
  9
$PUCSORGRIGHT
 10
0.0
 20
0.0
 30
0.0
  9
$PUCSORGFRONT
 10
0.0
 20
0.0
 30
0.0
  9
$PUCSORGBACK
 10
0.0
 20
0.0
 30
0.0
  9
$USERI1
 70
     0
  9
$USERI2
 70
     0
  9
$USERI3
 70
     0
  9
$USERI4
 70
     0
  9
$USERI5
 70
     0
  9
$USERR1
 40
0.0
  9
$USERR2
 40
0.0
  9
$USERR3
 40
0.0
  9
$USERR4
 40
0.0
  9
$USERR5
 40
0.0
  9
$WORLDVIEW
 70
     1
  9
$SHADEDGE
 70
     3
  9
$SHADEDIF
 70
    70
  9
$TILEMODE
 70
     1
  9
$MAXACTVP
 70
    64
  9
$PINSBASE
 10
0.0
 20
0.0
 30
0.0
  9
$PLIMCHECK
 70
     0
  9
$PEXTMIN
 10
1.0000000000E+20
 20
1.0000000000E+20
 30
1.0000000000E+20
  9
$PEXTMAX
 10
-1.0000000000E+20
 20
-1.0000000000E+20
 30
-1.0000000000E+20
  9
$PLIMMIN
 10
0.0
 20
0.0
  9
$PLIMMAX
 10
420.0
 20
297.0
  9
$UNITMODE
 70
     0
  9
$VISRETAIN
 70
     1
  9
$PLINEGEN
 70
     0
  9
$PSLTSCALE
 70
     1
  9
$TREEDEPTH
 70
  3020
  9
$CMLSTYLE
  2
Standard
  9
$CMLJUST
 70
     0
  9
$CMLSCALE
 40
20.0
  9
$PROXYGRAPHICS
 70
     1
  9
$MEASUREMENT
 70
     1
  9
$CELWEIGHT
370
    -1
  9
$ENDCAPS
280
     0
  9
$JOINSTYLE
280
     0
  9
$LWDISPLAY
290
     1
  9
$INSUNITS
 70
     4
  9
$HYPERLINKBASE
  1

  9
$STYLESHEET
  1

  9
$XEDIT
290
     1
  9
$CEPSNTYPE
380
     0
  9
$PSTYLEMODE
290
     1
  9
$FINGERPRINTGUID
  2
{a1272c6b-9fd8-4202-9480-bef617a8dbd4}
  9
$VERSIONGUID
  2
{FAEB1C32-E019-11D5-929B-00C0DF256EC4}
  9
$EXTNAMES
290
     1
  9
$PSVPSCALE
 40
0.0
  9
$OLESTARTUP
290
     0
  0
ENDSEC
  0
SECTION
  2
CLASSES
  0
CLASS
  1
ACDBDICTIONARYWDFLT
  2
AcDbDictionaryWithDefault
  3
ObjectDBX Classes
 90
        0
280
     0
281
     0
  0
CLASS
  1
VISUALSTYLE
  2
AcDbVisualStyle
  3
ObjectDBX Classes
 90
     4095
280
     0
281
     0
  0
CLASS
  1
MATERIAL
  2
AcDbMaterial
  3
ObjectDBX Classes
 90
     1153
280
     0
281
     0
  0
CLASS
  1
SCALE
  2
AcDbScale
  3
ObjectDBX Classes
 90
     1153
280
     0
281
     0
  0
CLASS
  1
TABLESTYLE
  2
AcDbTableStyle
  3
ObjectDBX Classes
 90
     4095
280
     0
281
     0
  0
CLASS
  1
MLEADERSTYLE
  2
AcDbMLeaderStyle
  3
ACDB_MLEADERSTYLE_CLASS
 90
     4095
280
     0
281
     0
  0
CLASS
  1
SUN
  2
AcDbSun
  3
SCENEOE
 90
     1153
280
     0
281
     0
  0
CLASS
  1
ACDBPLACEHOLDER
  2
AcDbPlaceHolder
  3
ObjectDBX Classes
 90
        0
280
     0
281
     0
  0
CLASS
  1
LAYOUT
  2
AcDbLayout
  3
ObjectDBX Classes
 90
        0
280
     0
281
     0
  0
ENDSEC
  0
SECTION
  2
TABLES
  0
TABLE
  2
VPORT
  5
8
330
0
100
AcDbSymbolTable
 70
     1
  0
VPORT
  5
29
330
8
100
AcDbSymbolTableRecord
100
AcDbViewportTableRecord
  2
*Active
 70
     0
 10
0.0
 20
0.0
 11
1.0
 21
1.0
 12
0.0
 22
-5.5
 13
0.0
 23
0.0
 14
10.0
 24
10.0
 15
10.0
 25
10.0
 16
0.0
 26
0.0
 36
1.0
 17
0.0
 27
0.0
 37
0.0
 40
184.62
 41
0.773480663
 42
50.0
 43
0.0
 44
0.0
 50
0.0
 51
0.0
 71
     0
 72
   100
 73
     1
 74
     3
 75
     0
 76
     0
 77
     0
 78
     0
281
     0
 65
     1
110
0.0
120
0.0
130
0.0
111
1.0
121
0.0
131
0.0
112
0.0
122
1.0
132
0.0
 79
     0
146
0.0
  0
ENDTAB
  0
TABLE
  2
LTYPE
  5
5
330
0
100
AcDbSymbolTable
 70
     6
  0
LTYPE
  5
14
330
5
100
AcDbSymbolTableRecord
100
AcDbLinetypeTableRecord
  2
ByBlock
 70
     0
  3

 72
    65
 73
     0
 40
0.0
  0
LTYPE
  5
15
330
5
100
AcDbSymbolTableRecord
100
AcDbLinetypeTableRecord
  2
ByLayer
 70
     0
  3

 72
    65
 73
     0
 40
0.0
  0
LTYPE
  5
16
330
5
100
AcDbSymbolTableRecord
100
AcDbLinetypeTableRecord
  2
Continuous
 70
     0
  3
Solid line
 72
    65
 73
     0
 40
0.0
  0
LTYPE
  5
5E
330
5
100
AcDbSymbolTableRecord
100
AcDbLinetypeTableRecord
  2
HIDDEN
 70
     0
  3
Hidden __ __ __ __ __ __ __ __ __ __ __ __ __ __
 72
    65
 73
     2
 40
1.905
 49
1.27
 74
     0
 49
-0.635
 74
     0
  0
LTYPE
  5
5F
330
5
100
AcDbSymbolTableRecord
100
AcDbLinetypeTableRecord
  2
PHANTOM
 70
     0
  3
Phantom ______  __  __  ______  __  __  ______
 72
    65
 73
     6
 40
12.7
 49
6.35
 74
     0
 49
-1.27
 74
     0
 49
1.27
 74
     0
 49
-1.27
 74
     0
 49
1.27
 74
     0
 49
-1.27
 74
     0
  0
LTYPE
  5
60
330
5
100
AcDbSymbolTableRecord
100
AcDbLinetypeTableRecord
  2
CENTER
 70
     0
  3
Center ____ _ ____ _ ____ _ ____ _ ____ _ ____
 72
    65
 73
     4
 40
10.16
 49
6.35
 74
     0
 49
-1.27
 74
     0
 49
1.27
 74
     0
 49
-1.27
 74
     0
  0
LTYPE
  5
61
330
5
100
AcDbSymbolTableRecord
100
AcDbLinetypeTableRecord
  2
CENTERX2
 70
     0
  3
Center (2x) ________  __  ________  __  _____
 72
    65
 73
     4
 40
20.32
 49
12.7
 74
     0
 49
-2.54
 74
     0
 49
2.54
 74
     0
 49
-2.54
 74
     0
  0
LTYPE
  5
62
330
5
100
AcDbSymbolTableRecord
100
AcDbLinetypeTableRecord
  2
DOT2
 70
     0
  3
Dot (.5x) ........................................
 72
    65
 73
     2
 40
0.635
 49
0.0
 74
     0
 49
-0.635
 74
     0
  0
ENDTAB
  0
TABLE
  2
LAYER
  5
2
330
0
100
AcDbSymbolTable
 70
     1
  0
LAYER
  5
10
330
2
100
AcDbSymbolTableRecord
100
AcDbLayerTableRecord
  2
0
 70
     0
 62
     7
  6
Continuous
370
    -3
390
F
  0
ENDTAB
  0
TABLE
  2
STYLE
  5
3
330
0
100
AcDbSymbolTable
 70
     2
  0
STYLE
  5
11
330
3
100
AcDbSymbolTableRecord
100
AcDbTextStyleTableRecord
  2
Standard
 70
     0
 40
0.0
 41
1.0
 50
0.0
 71
     0
 42
3.5
  3
txt
  4

  0
STYLE
  5
1FB
330
3
100
AcDbSymbolTableRecord
100
AcDbTextStyleTableRecord
  2
SLDTEXTSTYLE0
 70
     0
 40
0.0
 41
0.7
 50
0.0
 71
     0
 42
3.5
  3
TXT
  4

  0
ENDTAB
  0
TABLE
  2
VIEW
  5
6
330
0
100
AcDbSymbolTable
 70
     0
  0
ENDTAB
  0
TABLE
  2
UCS
  5
7
330
0
100
AcDbSymbolTable
 70
     0
  0
ENDTAB
  0
TABLE
  2
APPID
  5
9
330
0
100
AcDbSymbolTable
 70
     1
  0
APPID
  5
12
330
9
100
AcDbSymbolTableRecord
100
AcDbRegAppTableRecord
  2
ACAD
 70
     0
  0
ENDTAB
  0
TABLE
  2
DIMSTYLE
  5
A
330
0
100
AcDbSymbolTable
 70
     1
100
AcDbDimStyleTable
  0
DIMSTYLE
105
27
330
A
100
AcDbSymbolTableRecord
100
AcDbDimStyleTableRecord
  2
ISO-25
 70
     0
 41
2.5
 42
0.625
 43
3.75
 44
1.25
 73
     0
 74
     0
 77
     1
 78
     8
140
2.5
141
2.5
143
0.0393700787
147
0.625
171
     3
172
     1
178
     0
271
     2
272
     2
274
     3
278
    44
283
     0
284
     8
340
11
  0
ENDTAB
  0
TABLE
  2
BLOCK_RECORD
  5
1
330
0
100
AcDbSymbolTable
 70
     1
  0
BLOCK_RECORD
  5
1F
330
1
100
AcDbSymbolTableRecord
100
AcDbBlockTableRecord
  2
*Model_Space
340
22
  0
BLOCK_RECORD
  5
1B
330
1
100
AcDbSymbolTableRecord
100
AcDbBlockTableRecord
  2
*Paper_Space
340
1E
  0
BLOCK_RECORD
  5
23
330
1
100
AcDbSymbolTableRecord
100
AcDbBlockTableRecord
  2
*Paper_Space0
340
26
  0
ENDTAB
  0
ENDSEC
  0
SECTION
  2
BLOCKS
  0
BLOCK
  5
20
330
1F
100
AcDbEntity
  8
0
100
AcDbBlockBegin
  2
*Model_Space
 70
     0
 10
0.0
 20
0.0
 30
0.0
  3
*Model_Space
  1

  0
ENDBLK
  5
21
330
1F
100
AcDbEntity
  8
0
100
AcDbBlockEnd
  0
BLOCK
  5
1C
330
1B
100
AcDbEntity
 67
     1
  8
0
100
AcDbBlockBegin
  2
*Paper_Space
 70
     0
 10
0.0
 20
0.0
 30
0.0
  3
*Paper_Space
  1

  0
ENDBLK
  5
1D
330
1B
100
AcDbEntity
 67
     1
  8
0
100
AcDbBlockEnd
  0
BLOCK
  5
24
330
23
100
AcDbEntity
  8
0
100
AcDbBlockBegin
  2
*Paper_Space0
 70
     0
 10
0.0
 20
0.0
 30
0.0
  3
*Paper_Space0
  1

  0
ENDBLK
  5
25
330
23
100
AcDbEntity
  8
0
100
AcDbBlockEnd
  0
ENDSEC
  0
SECTION
  2
ENTITIES
  0
CIRCLE
  5
88
330
1F
100
AcDbEntity
  8
0
  6
Continuous
 62
     7
370
    25
100
AcDbCircle
 10
-20.0
 20
9.0
 30
0.0
 40
1.499999999999995
  0
CIRCLE
  5
89
330
1F
100
AcDbEntity
  8
0
  6
Continuous
 62
     7
370
    25
100
AcDbCircle
 10
20.0
 20
9.0
 30
0.0
 40
1.499999999999993
  0
CIRCLE
  5
9D
330
1F
100
AcDbEntity
  8
0
  6
Continuous
 62
     7
370
    25
100
AcDbCircle
 10
22.6907968997
 20
44.0
 30
0.0
 40
1.5
  0
CIRCLE
  5
9E
330
1F
100
AcDbEntity
  8
0
  6
Continuous
 62
     7
370
    25
100
AcDbCircle
 10
-17.8495
 20
79.2683808676
 30
0.0
 40
1.500000000000028
  0
CIRCLE
  5
9F
330
1F
100
AcDbEntity
  8
0
  6
Continuous
 62
     7
370
    25
100
AcDbCircle
 10
17.8495
 20
79.2683808676
 30
0.0
 40
1.500000000000028
  0
CIRCLE
  5
A0
330
1F
100
AcDbEntity
  8
0
  6
Continuous
 62
     7
370
    25
100
AcDbCircle
 10
0.0
 20
9.0
 30
0.0
 40
1.500000000000002
  0
CIRCLE
  5
A1
330
1F
100
AcDbEntity
  8
0
  6
Continuous
 62
     7
370
    25
100
AcDbCircle
 10
17.55
 20
-90.0
 30
0.0
 40
1.5
  0
CIRCLE
  5
A2
330
1F
100
AcDbEntity
  8
0
  6
Continuous
 62
     7
370
    25
100
AcDbCircle
 10
15.3208860358
 20
-37.4693127804
 30
0.0
 40
1.650000000000595
  0
CIRCLE
  5
C5
330
1F
100
AcDbEntity
  8
0
  6
Continuous
 62
     7
370
    25
100
AcDbCircle
 10
45.5
 20
-74.0
 30
0.0
 40
1.500000000000028
  0
CIRCLE
  5
C6
330
1F
100
AcDbEntity
  8
0
  6
Continuous
 62
     7
370
    25
100
AcDbCircle
 10
45.5
 20
-64.0
 30
0.0
 40
1.500000000000036
  0
CIRCLE
  5
C7
330
1F
100
AcDbEntity
  8
0
  6
Continuous
 62
     7
370
    25
100
AcDbCircle
 10
-45.5
 20
-64.0
 30
0.0
 40
1.499999999999986
  0
CIRCLE
  5
C8
330
1F
100
AcDbEntity
  8
0
  6
Continuous
 62
     7
370
    25
100
AcDbCircle
 10
-45.5
 20
-74.0
 30
0.0
 40
1.499999999999986
  0
CIRCLE
  5
C9
330
1F
100
AcDbEntity
  8
0
  6
Continuous
 62
     7
370
    25
100
AcDbCircle
 10
8.25
 20
-74.0
 30
0.0
 40
1.500000000000767
  0
CIRCLE
  5
CA
330
1F
100
AcDbEntity
  8
0
  6
Continuous
 62
     7
370
    25
100
AcDbCircle
 10
8.25
 20
-64.0
 30
0.0
 40
1.500000000000739
  0
CIRCLE
  5
CB
330
1F
100
AcDbEntity
  8
0
  6
Continuous
 62
     7
370
    25
100
AcDbCircle
 10
0.2595115965
 20
-37.4693127804
 30
0.0
 40
1.650000000000588
  0
CIRCLE
  5
D2
330
1F
100
AcDbEntity
  8
0
  6
Continuous
 62
     7
370
    25
100
AcDbCircle
 10
45.55
 20
-90.0
 30
0.0
 40
1.5
  0
CIRCLE
  5
D3
330
1F
100
AcDbEntity
  8
0
  6
Continuous
 62
     7
370
    25
100
AcDbCircle
 10
-45.55
 20
-90.0
 30
0.0
 40
1.5
  0
CIRCLE
  5
D4
330
1F
100
AcDbEntity
  8
0
  6
Continuous
 62
     7
370
    25
100
AcDbCircle
 10
-17.55
 20
-90.0
 30
0.0
 40
1.5
  0
CIRCLE
  5
D5
330
1F
100
AcDbEntity
  8
0
  6
Continuous
 62
     7
370
    25
100
AcDbCircle
 10
-32.9303286758
 20
41.9311676654
 30
0.0
 40
1.499999999999993
  0
CIRCLE
  5
D6
330
1F
100
AcDbEntity
  8
0
  6
Continuous
 62
     7
370
    25
100
AcDbCircle
 10
-43.7998938932
 20
36.9311676654
 30
0.0
 40
2.499999999999993
  0
CIRCLE
  5
D7
330
1F
100
AcDbEntity
  8
0
  6
Continuous
 62
     7
370
    25
100
AcDbCircle
 10
43.7998938932
 20
36.9311676654
 30
0.0
 40
2.499999999999993
  0
CIRCLE
  5
D8
330
1F
100
AcDbEntity
  8
0
  6
Continuous
 62
     7
370
    25
100
AcDbCircle
 10
32.9303286758
 20
41.9311676654
 30
0.0
 40
1.499999999999993
  0
SPLINE
  5
F3
330
1F
100
AcDbEntity
  8
0
  6
Continuous
 62
     7
370
    25
100
AcDbSpline
210
0.0
220
0.0
230
1.0
 70
     8
 71
     3
 72
    11
 73
     7
 74
     0
 42
0.00000001
 43
0.00000001
 40
0.0
 40
0.0
 40
0.0
 40
0.0
 40
0.2951388013693797
 40
0.5602299448882444
 40
0.7949833567409026
 40
1.0
 40
1.0
 40
1.0
 40
1.0
 10
8.8033110317654
 20
-8.476168436280469
 30
0.0
 10
8.788202010621536
 20
-8.469428170165324
 30
0.0
 10
8.759522196095388
 20
-8.456633854756104
 30
0.0
 10
8.717567629826634
 20
-8.441491844624068
 30
0.0
 10
8.678886293095761
 20
-8.432575928775949
 30
0.0
 10
8.65424273473289
 20
-8.431225211323833
 30
0.0
 10
8.64275414073976
 20
-8.430595519613803
 30
0.0
  0
CIRCLE
  5
110
330
1F
100
AcDbEntity
  8
0
  6
Continuous
 62
     7
370
    25
100
AcDbCircle
 10
0.2595115965
 20
-52.5306872196
 30
0.0
 40
1.650000000000588
  0
CIRCLE
  5
113
330
1F
100
AcDbEntity
  8
0
  6
Continuous
 62
     7
370
    25
100
AcDbCircle
 10
15.3208860358
 20
-52.5306872196
 30
0.0
 40
1.650000000000595
  0
CIRCLE
  5
115
330
1F
100
AcDbEntity
  8
0
  6
Continuous
 62
     7
370
    25
100
AcDbCircle
 10
-22.6907968997
 20
44.0
 30
0.0
 40
1.500000000000007
  0
SPLINE
  5
116
330
1F
100
AcDbEntity
  8
0
  6
Continuous
 62
     7
370
    25
100
AcDbSpline
210
0.0
220
0.0
230
1.0
 70
     8
 71
     3
 72
    23
 73
    19
 74
     0
 42
0.00000001
 43
0.00000001
 40
0.0
 40
0.0
 40
0.0
 40
0.0
 40
0.0715786576891419
 40
0.139629224692848
 40
0.2047966973966657
 40
0.268134963396682
 40
0.3298137469867304
 40
0.3913013977745601
 40
0.453433515097054
 40
0.5165516903197667
 40
0.5796312707049233
 40
0.6411189214927526
 40
0.7012940466987743
 40
0.7608103356761339
 40
0.8199317217781442
 40
0.8789195754993823
 40
0.9389828222504473
 40
1.0
 40
1.0
 40
1.0
 40
1.0
 10
5.9097813843295
 20
-10.76392885294714
 30
0.0
 10
5.860639406794059
 20
-10.76278167761756
 30
0.0
 10
5.764777645136742
 20
-10.76054387088821
 30
0.0
 10
5.625237898023888
 20
-10.74125140645374
 30
0.0
 10
5.49385847962636
 20
-10.70977904776006
 30
0.0
 10
5.370646776272761
 20
-10.66581350626879
 30
0.0
 10
5.255904523695211
 20
-10.60838618217851
 30
0.0
 10
5.149403668883286
 20
-10.53842670037478
 30
0.0
 10
5.050584143014313
 20
-10.45629444568623
 30
0.0
 10
4.962559933829161
 20
-10.36127800219927
 30
0.0
 10
4.883316051118722
 20
-10.25959604490387
 30
0.0
 10
4.813390231143036
 20
-10.15364016041788
 30
0.0
 10
4.754932800093598
 20
-10.04367693594397
 30
0.0
 10
4.707380189897865
 20
-9.930406411900421
 30
0.0
 10
4.668975324928067
 20
-9.81454251835729
 30
0.0
 10
4.64220862115894
 20
-9.695031050788073
 30
0.0
 10
4.626778873176884
 20
-9.572195466547901
 30
0.0
 10
4.624414427639524
 20
-9.489098130830142
 30
0.0
 10
4.623222890739757
 20
-9.447222122177905
 30
0.0
  0
SPLINE
  5
117
330
1F
100
AcDbEntity
  8
0
  6
Continuous
 62
     7
370
    25
100
AcDbSpline
210
0.0
220
0.0
230
1.0
 70
     8
 71
     3
 72
    15
 73
    11
 74
     0
 42
0.00000001
 43
0.00000001
 40
0.0
 40
0.0
 40
0.0
 40
0.0
 40
0.1288352544875554
 40
0.2535893349864761
 40
0.3746432573141688
 40
0.4953400422377911
 40
0.6163247746357906
 40
0.7397593354405143
 40
0.866842320380546
 40
1.0
 40
1.0
 40
1.0
 40
1.0
 10
-8.409229032337167
 20
-8.593255776024058
 30
0.0
 10
-8.377521349561336
 20
-8.555386905936007
 30
0.0
 10
-8.315110402953065
 20
-8.480848755485532
 30
0.0
 10
-8.209554047599205
 20
-8.382910429703907
 30
0.0
 10
-8.095253851256826
 20
-8.300866654526848
 30
0.0
 10
-7.973642225156667
 20
-8.232859518388631
 30
0.0
 10
-7.843305751096071
 20
-8.181185871395845
 30
0.0
 10
-7.705996460058486
 20
-8.142678289163575
 30
0.0
 10
-7.56015087383187
 20
-8.1211002781303
 30
0.0
 10
-7.460445652993673
 20
-8.118052444508306
 30
0.0
 10
-7.409429352849988
 20
-8.116492955511237
 30
0.0
  0
SPLINE
  5
118
330
1F
100
AcDbEntity
  8
0
  6
Continuous
 62
     7
370
    25
100
AcDbSpline
210
0.0
220
0.0
230
1.0
 70
     8
 71
     3
 72
    15
 73
    11
 74
     0
 42
0.00000001
 43
0.00000001
 40
0.0
 40
0.0
 40
0.0
 40
0.0
 40
0.1342983790141689
 40
0.2620849753823013
 40
0.386269912134501
 40
0.5071645966228003
 40
0.6273002357255064
 40
0.748144941602994
 40
0.8723701771613522
 40
1.0
 40
1.0
 40
1.0
 40
1.0
 10
1.257838275355143
 20
-10.27664920551124
 30
0.0
 10
1.222419484728983
 20
-10.31668879946907
 30
0.0
 10
1.153299269448136
 20
-10.39482657055601
 30
0.0
 10
1.037858151476664
 20
-10.49690874304676
 30
0.0
 10
0.9154899735741778
 20
-10.58128706458682
 30
0.0
 10
0.7867886524434785
 20
-10.64943698028721
 30
0.0
 10
0.6518704090988612
 20
-10.70062903662457
 30
0.0
 10
0.5110343218226071
 20
-10.73701519575036
 30
0.0
 10
0.3642229409570712
 20
-10.76040903092261
 30
0.0
 10
0.2639705861670666
 20
-10.76274505279165
 30
0.0
 10
0.2131668009961684
 20
-10.76392885294714
 30
0.0
  0
SPLINE
  5
119
330
1F
100
AcDbEntity
  8
0
  6
Continuous
 62
     7
370
    25
100
AcDbSpline
210
0.0
220
0.0
230
1.0
 70
     8
 71
     3
 72
    15
 73
    11
 74
     0
 42
0.00000001
 43
0.00000001
 40
0.0
 40
0.0
 40
0.0
 40
0.0
 40
0.1261777183170041
 40
0.2488206074857901
 40
0.3715399692351548
 40
0.4999837069108811
 40
0.6272441978753717
 40
0.7492255210762659
 40
0.8722979504176515
 40
1.0
 40
1.0
 40
1.0
 40
1.0
 10
4.656187635768973
 20
-17.13779756851734
 30
0.0
 10
4.654992035023491
 20
-17.15704089827983
 30
0.0
 10
4.652634327911892
 20
-17.19498846196553
 30
0.0
 10
4.637371719782919
 20
-17.25026992458943
 30
0.0
 10
4.608473669552877
 20
-17.2998968290595
 30
0.0
 10
4.572238676630542
 20
-17.34519896718784
 30
0.0
 10
4.527442243072342
 20
-17.38213983779603
 30
0.0
 10
4.477340396649622
 20
-17.40956318252833
 30
0.0
 10
4.422349138492549
 20
-17.42625516243774
 30
0.0
 10
4.384032815144327
 20
-17.42838145953983
 30
0.0
 10
4.364520969102307
 20
-17.42946423518401
 30
0.0
  0
SPLINE
  5
11B
330
1F
100
AcDbEntity
  8
0
  6
Continuous
 62
     7
370
    25
100
AcDbSpline
210
0.0
220
0.0
230
1.0
 70
     8
 71
     3
 72
    19
 73
    15
 74
     0
 42
0.00000001
 43
0.00000001
 40
0.0
 40
0.0
 40
0.0
 40
0.0
 40
0.093369856736196
 40
0.1816607660710048
 40
0.2658742270426186
 40
0.346354784034308
 40
0.4245998617178939
 40
0.5019031838373764
 40
0.5799920909873482
 40
0.6584434305294312
 40
0.7386722364878339
 40
0.8218941484362441
 40
0.9088007920466151
 40
1.0
 40
1.0
 40
1.0
 40
1.0
 10
-6.235751468234604
 20
-10.05789920551124
 30
0.0
 10
-6.257988063474578
 20
-10.09734253678656
 30
0.0
 10
-6.301251671959251
 20
-10.17408363960427
 30
0.0
 10
-6.375652419850022
 20
-10.27951550007634
 30
0.0
 10
-6.453644492428211
 20
-10.3743632159151
 30
0.0
 10
-6.538748460431783
 20
-10.45609287019899
 30
0.0
 10
-6.6284181393858
 20
-10.52734425517319
 30
0.0
 10
-6.723150794171481
 20
-10.58968207989214
 30
0.0
 10
-6.823439611906823
 20
-10.64280060023795
 30
0.0
 10
-6.929289336685083
 20
-10.68755312811072
 30
0.0
 10
-7.041588887826578
 20
-10.72196262221865
 30
0.0
 10
-7.160610404236628
 20
-10.74626684313966
 30
0.0
 10
-7.286581899615409
 20
-10.76129011179009
 30
0.0
 10
-7.372928079483169
 20
-10.76303525256715
 30
0.0
 10
-7.417141692593577
 20
-10.76392885294714
 30
0.0
  0
SPLINE
  5
11C
330
1F
100
AcDbEntity
  8
0
  6
Continuous
 62
     7
370
    25
100
AcDbSpline
210
0.0
220
0.0
230
1.0
 70
     8
 71
     3
 72
    15
 73
    11
 74
     0
 42
0.00000001
 43
0.00000001
 40
0.0
 40
0.0
 40
0.0
 40
0.0
 40
0.1320402344259814
 40
0.2590328407793698
 40
0.3818798239250167
 40
0.5022584437149854
 40
0.6227521895274795
 40
0.7447426318590019
 40
0.8701089273418195
 40
0.9999999999999999
 40
0.9999999999999999
 40
0.9999999999999999
 40
0.9999999999999999
 10
5.917493724073091
 20
-8.116492955511237
 30
0.0
 10
5.969941329376775
 20
-8.117847004403739
 30
0.0
 10
6.072831575315444
 20
-8.1205033396693
 30
0.0
 10
6.22286369635223
 20
-8.145129673078364
 30
0.0
 10
6.36482441289283
 20
-8.184182227641761
 30
0.0
 10
6.498656917201645
 20
-8.239336018142302
 30
0.0
 10
6.624374777954477
 20
-8.31049556993267
 30
0.0
 10
6.741160827529169
 20
-8.39863741141362
 30
0.0
 10
6.851012340077923
 20
-8.501055498638689
 30
0.0
 10
6.914920918930124
 20
-8.579818708065975
 30
0.0
 10
6.947441640739757
 20
-8.619898404229186
 30
0.0
  0
SPLINE
  5
11D
330
1F
100
AcDbEntity
  8
0
  6
Continuous
 62
     7
370
    25
100
AcDbSpline
210
0.0
220
0.0
230
1.0
 70
     8
 71
     3
 72
    15
 73
    11
 74
     0
 42
0.00000001
 43
0.00000001
 40
0.0
 40
0.0
 40
0.0
 40
0.0
 40
0.1320402344259814
 40
0.2590328407793698
 40
0.3818798239250167
 40
0.5022584437149854
 40
0.6227521895274795
 40
0.7447426318590019
 40
0.8701089273418195
 40
0.9999999999999999
 40
0.9999999999999999
 40
0.9999999999999999
 40
0.9999999999999999
 10
-7.409429352849988
 20
-8.116492955511237
 30
0.0
 10
-7.356981747546302
 20
-8.117847004403739
 30
0.0
 10
-7.254091501607633
 20
-8.1205033396693
 30
0.0
 10
-7.104059380570847
 20
-8.145129673078364
 30
0.0
 10
-6.962098664030248
 20
-8.184182227641761
 30
0.0
 10
-6.828266159721437
 20
-8.239336018142302
 30
0.0
 10
-6.702548298968601
 20
-8.31049556993267
 30
0.0
 10
-6.58576224939391
 20
-8.39863741141362
 30
0.0
 10
-6.475910736845155
 20
-8.501055498638689
 30
0.0
 10
-6.412002157992955
 20
-8.579818708065975
 30
0.0
 10
-6.379481436183322
 20
-8.619898404229186
 30
0.0
  0
SPLINE
  5
11E
330
1F
100
AcDbEntity
  8
0
  6
Continuous
 62
     7
370
    25
100
AcDbSpline
210
0.0
220
0.0
230
1.0
 70
     8
 71
     3
 72
    19
 73
    15
 74
     0
 42
0.00000001
 43
0.00000001
 40
0.0
 40
0.0
 40
0.0
 40
0.0
 40
0.093369856736196
 40
0.1816607660710048
 40
0.2658742270426186
 40
0.346354784034308
 40
0.4245998617178939
 40
0.5019031838373764
 40
0.5799920909873482
 40
0.6584434305294312
 40
0.7386722364878339
 40
0.8218941484362441
 40
0.9088007920466151
 40
1.0
 40
1.0
 40
1.0
 40
1.0
 10
7.091171608688475
 20
-10.05789920551124
 30
0.0
 10
7.0689350134485
 20
-10.09734253678656
 30
0.0
 10
7.025671404963827
 20
-10.17408363960427
 30
0.0
 10
6.951270657073059
 20
-10.27951550007634
 30
0.0
 10
6.873278584494867
 20
-10.3743632159151
 30
0.0
 10
6.788174616491292
 20
-10.45609287019899
 30
0.0
 10
6.698504937537279
 20
-10.52734425517319
 30
0.0
 10
6.603772282751598
 20
-10.58968207989214
 30
0.0
 10
6.503483465016254
 20
-10.64280060023795
 30
0.0
 10
6.397633740237993
 20
-10.68755312811072
 30
0.0
 10
6.285334189096497
 20
-10.72196262221865
 30
0.0
 10
6.166312672686455
 20
-10.74626684313966
 30
0.0
 10
6.040341177307666
 20
-10.76129011179009
 30
0.0
 10
5.953994997439912
 20
-10.76303525256715
 30
0.0
 10
5.9097813843295
 20
-10.76392885294714
 30
0.0
  0
SPLINE
  5
11F
330
1F
100
AcDbEntity
  8
0
  6
Continuous
 62
     7
370
    25
100
AcDbSpline
210
0.0
220
0.0
230
1.0
 70
     8
 71
     3
 72
    31
 73
    27
 74
     0
 42
0.00000001
 43
0.00000001
 40
0.0
 40
0.0
 40
0.0
 40
0.0
 40
0.068594622258743
 40
0.1332460424433018
 40
0.1943125864682571
 40
0.251279223116967
 40
0.3045134392563472
 40
0.3542349066533249
 40
0.4004805887739896
 40
0.4434107549384923
 40
0.4840148686163449
 40
0.5232523007732035
 40
0.56104237272836
 40
0.5979002393643997
 40
0.6335184888561954
 40
0.6683143511696514
 40
0.7024956712863816
 40
0.7366853535134583
 40
0.7702931693607888
 40
0.803437255019249
 40
0.8359129516660287
 40
0.8684602457892907
 40
0.9008465382431826
 40
0.9334665246307078
 40
0.9662575752981233
 40
1.0
 40
1.0
 40
1.0
 40
1.0
 10
1.111315840897176
 20
-15.63599468390196
 30
0.0
 10
1.111643859054641
 20
-15.57989729616771
 30
0.0
 10
1.112281039053488
 20
-15.47092731192025
 30
0.0
 10
1.119369459995728
 20
-15.31214266985344
 30
0.0
 10
1.131144802308902
 20
-15.16318238085827
 30
0.0
 10
1.147282175159177
 20
-15.02403931481984
 30
0.0
 10
1.16692015538277
 20
-14.89467755030213
 30
0.0
 10
1.193135641984085
 20
-14.77544279316583
 30
0.0
 10
1.222948444599048
 20
-14.66578318655277
 30
0.0
 10
1.257500890409551
 20
-14.56534113807675
 30
0.0
 10
1.296488679427895
 20
-14.47276343505458
 30
0.0
 10
1.338922940149962
 20
-14.38633823376082
 30
0.0
 10
1.386487734573538
 20
-14.30619630142105
 30
0.0
 10
1.436464647500644
 20
-14.2310585110011
 30
0.0
 10
1.490876719128458
 20
-14.16215481620876
 30
0.0
 10
1.548175509595705
 20
-14.09851215369024
 30
0.0
 10
1.610597385862832
 20
-14.04160140322643
 30
0.0
 10
1.676020394136278
 20
-13.98975510084135
 30
0.0
 10
1.745036858527997
 20
-13.94430562916941
 30
0.0
 10
1.8156795246712
 20
-13.90427289055365
 30
0.0
 10
1.888434630527136
 20
-13.87007302329604
 30
0.0
 10
1.963500813425068
 20
-13.84318258743651
 30
0.0
 10
2.040203371314753
 20
-13.82097174066389
 30
0.0
 10
2.118810438006043
 20
-13.80578279301732
 30
0.0
 10
2.199451801942368
 20
-13.79622588452793
 30
0.0
 10
2.253883236740516
 20
-13.79531221678773
 30
0.0
 10
2.281488116538202
 20
-13.79484885056862
 30
0.0
  0
SPLINE
  5
120
330
1F
100
AcDbEntity
  8
0
  6
Continuous
 62
     7
370
    25
100
AcDbSpline
210
0.0
220
0.0
230
1.0
 70
     8
 71
     3
 72
    31
 73
    27
 74
     0
 42
0.00000001
 43
0.00000001
 40
0.0
 40
0.0
 40
0.0
 40
0.0
 40
0.0337881161627104
 40
0.0671939323738802
 40
0.0998624108568252
 40
0.1325666121262584
 40
0.1651511732547862
 40
0.1979131873557921
 40
0.2313190035669617
 40
0.2650832782673732
 40
0.2992553087581147
 40
0.3343985665049783
 40
0.3699428235093075
 40
0.4062835607000611
 40
0.4440638196985081
 40
0.482997706872775
 40
0.5233544466133043
 40
0.5655365896041485
 40
0.609612924065819
 40
0.6563908113764166
 40
0.7058854949364569
 40
0.7583245002617307
 40
0.8138317829411498
 40
0.8727945590393895
 40
0.9347222295400733
 40
1.0
 40
1.0
 40
1.0
 40
1.0
 10
2.281488116538202
 20
-13.79484885056862
 30
0.0
 10
2.309323595022543
 20
-13.79533666574429
 30
0.0
 10
2.364679603918227
 20
-13.79630677664857
 30
0.0
 10
2.446519979164144
 20
-13.80563071918317
 30
0.0
 10
2.526469660878744
 20
-13.82110184228011
 30
0.0
 10
2.604187799582224
 20
-13.84302281686277
 30
0.0
 10
2.680312786049999
 20
-13.87021849352219
 30
0.0
 10
2.754249193695649
 20
-13.90430561063136
 30
0.0
 10
2.826456275337699
 20
-13.94398447797584
 30
0.0
 10
2.895786562857598
 20
-13.99060835528246
 30
0.0
 10
2.963001178203676
 20
-14.04259063147922
 30
0.0
 10
3.026449141175775
 20
-14.10135330028256
 30
0.0
 10
3.086136227073233
 20
-14.16630301955121
 30
0.0
 10
3.142811532459464
 20
-14.23674488343782
 30
0.0
 10
3.194867129658713
 20
-14.31402996827141
 30
0.0
 10
3.244440561894145
 20
-14.39681407808555
 30
0.0
 10
3.288812597795806
 20
-14.48654494287936
 30
0.0
 10
3.331547272974403
 20
-14.5817254107204
 30
0.0
 10
3.368434259713646
 20
-14.68498906952707
 30
0.0
 10
3.401700504985958
 20
-14.79575383004516
 30
0.0
 10
3.428579473560894
 20
-14.91532801689851
 30
0.0
 10
3.450968745899031
 20
-15.04308426219361
 30
0.0
 10
3.468313641844641
 20
-15.17949174543378
 30
0.0
 10
3.480946283923192
 20
-15.32425806094553
 30
0.0
 10
3.487619368964531
 20
-15.4774784515863
 30
0.0
 10
3.488876070171203
 20
-15.58223630076346
 30
0.0
 10
3.489520969102305
 20
-15.63599468390196
 30
0.0
  0
SPLINE
  5
121
330
1F
100
AcDbEntity
  8
0
  6
Continuous
 62
     7
370
    25
100
AcDbSpline
210
0.0
220
0.0
230
1.0
 70
     8
 71
     3
 72
    23
 73
    19
 74
     0
 42
0.00000001
 43
0.00000001
 40
0.0
 40
0.0
 40
0.0
 40
0.0
 40
0.0646199913407678
 40
0.1274334841444694
 40
0.18900412655794
 40
0.2499300706860469
 40
0.3106684537406716
 40
0.3723289611368242
 40
0.4349391099970085
 40
0.4995755441940338
 40
0.564191207771924
 40
0.6267352169294786
 40
0.6881093335614016
 40
0.7492936065367513
 40
0.8103305278109454
 40
0.8719011702244153
 40
0.9350459146845311
 40
1.0
 40
1.0
 40
1.0
 40
1.0
 10
0.2131668009961684
 20
-10.76392885294714
 30
0.0
 10
0.1679988471636325
 20
-10.76270248067798
 30
0.0
 10
0.0789256422756388
 20
-10.76028402026235
 30
0.0
 10
-0.0521034348632761
 20
-10.74152171664408
 30
0.0
 10
-0.1781956843159373
 20
-10.71139109500199
 30
0.0
 10
-0.299470256977726
 20
-10.66949020551023
 30
0.0
 10
-0.4151424024118313
 20
-10.61390938387205
 30
0.0
 10
-0.5262024990841402
 20
-10.54736813583063
 30
0.0
 10
-0.632075191103255
 20
-10.46812730574998
 30
0.0
 10
-0.7311467300671091
 20
-10.37753927739709
 30
0.0
 10
-0.8223787304430105
 20
-10.27914429021347
 30
0.0
 10
-0.902440003065196
 20
-10.17419874333835
 30
0.0
 10
-0.9691930829199402
 20
-10.06315643944568
 30
0.0
 10
-1.025013163627214
 20
-9.947423285556967
 30
0.0
 10
-1.068009508067947
 20
-9.826108366022934
 30
0.0
 10
-1.097983142325869
 20
-9.699631198083157
 30
0.0
 10
-1.116723589026529
 20
-9.568141324543305
 30
0.0
 10
-1.119141049711484
 20
-9.478601801447699
 30
0.0
 10
-1.120366852849985
 20
-9.433199686280467
 30
0.0
  0
SPLINE
  5
122
330
1F
100
AcDbEntity
  8
0
  6
Continuous
 62
     7
370
    25
100
AcDbSpline
210
0.0
220
0.0
230
1.0
 70
     8
 71
     3
 72
    15
 73
    11
 74
     0
 42
0.00000001
 43
0.00000001
 40
0.0
 40
0.0
 40
0.0
 40
0.0
 40
0.0708548685015322
 40
0.1569381495573543
 40
0.2586003949600846
 40
0.3758909295892031
 40
0.5081661676989032
 40
0.656237808578225
 40
0.8201767703979109
 40
1.0
 40
1.0
 40
1.0
 40
1.0
 10
8.134440839457708
 20
-8.981677250383033
 30
0.0
 10
8.129708446092627
 20
-9.001954423961854
 30
0.0
 10
8.119226554397674
 20
-9.046866822601682
 30
0.0
 10
8.109035016554056
 20
-9.122215347323456
 30
0.0
 10
8.098965498577508
 20
-9.211239006087455
 30
0.0
 10
8.091868880226764
 20
-9.314185598971006
 30
0.0
 10
8.085290838099482
 20
-9.430798042899173
 30
0.0
 10
8.081580755872343
 20
-9.561253988522774
 30
0.0
 10
8.07847761531559
 20
-9.705687339664827
 30
0.0
 10
8.078394548444692
 20
-9.806661692897046
 30
0.0
 10
8.078351095867964
 20
-9.85948173756252
 30
0.0
  0
SPLINE
  5
123
330
1F
100
AcDbEntity
  8
0
  6
Continuous
 62
     7
370
    25
100
AcDbSpline
210
0.0
220
0.0
230
1.0
 70
     8
 71
     3
 72
    15
 73
    11
 74
     0
 42
0.00000001
 43
0.00000001
 40
0.0
 40
0.0
 40
0.0
 40
0.0
 40
0.1280448079611212
 40
0.253767900024491
 40
0.377428426581302
 40
0.5005508414825337
 40
0.6232958832424766
 40
0.746578331933509
 40
0.8723475406047179
 40
0.9999999999999999
 40
0.9999999999999999
 40
0.9999999999999999
 40
0.9999999999999999
 10
4.623222890739757
 20
-9.447222122177905
 30
0.0
 10
4.624282032070353
 20
-9.407927291760329
 30
0.0
 10
4.626381110319398
 20
-9.33005012707346
 30
0.0
 10
4.639611897713086
 20
-9.214784582543178
 30
0.0
 10
4.663060190781104
 20
-9.102756130014619
 30
0.0
 10
4.695236514730234
 20
-8.993871682045746
 30
0.0
 10
4.736787760913475
 20
-8.88831354806166
 30
0.0
 10
4.787619980129693
 20
-8.7860174844385
 30
0.0
 10
4.847812357918478
 20
-8.687092344578042
 30
0.0
 10
4.894285031674944
 20
-8.624689210870228
 30
0.0
 10
4.917694044585911
 20
-8.593255776024058
 30
0.0
  0
SPLINE
  5
124
330
1F
100
AcDbEntity
  8
0
  6
Continuous
 62
     7
370
    25
100
AcDbSpline
210
0.0
220
0.0
230
1.0
 70
     8
 71
     3
 72
    31
 73
    27
 74
     0
 42
0.00000001
 43
0.00000001
 40
0.0
 40
0.0
 40
0.0
 40
0.0
 40
0.0337871463469909
 40
0.0666216577242938
 40
0.0992848780959723
 40
0.1313611650426504
 40
0.1635851875953434
 40
0.1961039269870682
 40
0.2289022543238168
 40
0.2621580559050075
 40
0.295991222258316
 40
0.3302178457247996
 40
0.3650598258919542
 40
0.4009507373401081
 40
0.4376203820767375
 40
0.4757075294370919
 40
0.515380691625049
 40
0.5564135414931648
 40
0.5997648298727307
 40
0.6464241555840876
 40
0.6964314445175666
 40
0.7497815178015572
 40
0.8065733069755321
 40
0.8674355315653994
 40
0.9318867532508746
 40
1.0
 40
1.0
 40
1.0
 40
1.0
 10
2.281488116538202
 20
-17.47433603005581
 30
0.0
 10
2.253884002552947
 20
-17.473869674597
 30
0.0
 10
2.199454077787436
 20
-17.47295011265958
 30
0.0
 10
2.118801652347985
 20
-17.46343638117139
 30
0.0
 10
2.04051920890804
 20
-17.44814087795903
 30
0.0
 10
1.964220454870433
 20
-17.42672427386796
 30
0.0
 10
1.889513939786748
 20
-17.40050943755251
 30
0.0
 10
1.817417653130952
 20
-17.36635575394953
 30
0.0
 10
1.747129969440278
 20
-17.32702168499357
 30
0.0
 10
1.678838413422197
 20
-17.28222626355528
 30
0.0
 10
1.613826252382364
 20
-17.23090458042689
 30
0.0
 10
1.551727647068527
 20
-17.1741402917404
 30
0.0
 10
1.494102627971558
 20
-17.11051688044298
 30
0.0
 10
1.440468532354231
 20
-17.04103895733526
 30
0.0
 10
1.389494444158489
 20
-16.96634571500251
 30
0.0
 10
1.342605070839239
 20
-16.8854173419571
 30
0.0
 10
1.299234216771185
 20
-16.79857473146749
 30
0.0
 10
1.259590726102658
 20
-16.70525682079239
 30
0.0
 10
1.224442062587737
 20
-16.6041018929326
 30
0.0
 10
1.193394354474318
 20
-16.49395271443012
 30
0.0
 10
1.16888019700425
 20
-16.37383707831607
 30
0.0
 10
1.147897241671374
 20
-16.2447197112107
 30
0.0
 10
1.130972858627876
 20
-16.10604578082484
 30
0.0
 10
1.119418533309507
 20
-15.95774000263796
 30
0.0
 10
1.112277218273746
 20
-15.7998947937118
 30
0.0
 10
1.111642147853628
 20
-15.6916250193952
 30
0.0
 10
1.111315840897176
 20
-15.63599468390196
 30
0.0
  0
SPLINE
  5
125
330
1F
100
AcDbEntity
  8
0
  6
Continuous
 62
     7
370
    25
100
AcDbSpline
210
0.0
220
0.0
230
1.0
 70
     8
 71
     3
 72
    23
 73
    19
 74
     0
 42
0.00000001
 43
0.00000001
 40
0.0
 40
0.0
 40
0.0
 40
0.0
 40
0.063774532305632
 40
0.1260788099895055
 40
0.1869040927472076
 40
0.2475739349176193
 40
0.3080033561644467
 40
0.3691318984609778
 40
0.4320332277442044
 40
0.4967907944370909
 40
0.5616108232295655
 40
0.6249138657484622
 40
0.6867263492419248
 40
0.7480788332577711
 40
0.8095822911398957
 40
0.8716307425688272
 40
0.9348858208285536
 40
1.0
 40
1.0
 40
1.0
 40
1.0
 10
-1.120366852849985
 20
-9.433199686280467
 30
0.0
 10
-1.119113881465102
 20
-9.38873598271104
 30
0.0
 10
-1.116636824629939
 20
-9.300833639391707
 30
0.0
 10
-1.098183604789669
 20
-9.171554941405846
 30
0.0
 10
-1.067152596130492
 20
-9.047036680672608
 30
0.0
 10
-1.023604748464603
 20
-8.927679737448846
 30
0.0
 10
-0.967762793501483
 20
-8.813339687300259
 30
0.0
 10
-0.8998347064806292
 20
-8.70393566228532
 30
0.0
 10
-0.8198155817817938
 20
-8.599166264823285
 30
0.0
 10
-0.7275631747654087
 20
-8.501495038004505
 30
0.0
 10
-0.6276284046027699
 20
-8.411274423735126
 30
0.0
 10
-0.5207196736873986
 20
-8.332865378292665
 30
0.0
 10
-0.4094963923665685
 20
-8.26514852947664
 30
0.0
 10
-0.2922333818441842
 20
-8.211495053170292
 30
0.0
 10
-0.1706662770301901
 20
-8.16808594862583
 30
0.0
 10
-0.0437128312829584
 20
-8.138052980525316
 30
0.0
 10
0.0880987473926154
 20
-8.120355659285305
 30
0.0
 10
0.1775892394572312
 20
-8.117792895134222
 30
0.0
 10
0.2229825061243736
 20
-8.116492955511237
 30
0.0
  0
SPLINE
  5
126
330
1F
100
AcDbEntity
  8
0
  6
Continuous
 62
     7
370
    25
100
AcDbSpline
210
0.0
220
0.0
230
1.0
 70
     8
 71
     3
 72
    15
 73
    11
 74
     0
 42
0.00000001
 43
0.00000001
 40
0.0
 40
0.0
 40
0.0
 40
0.0
 40
0.1600594124854934
 40
0.3061123827401262
 40
0.4383665141302054
 40
0.5605414552552194
 40
0.6753172249527019
 40
0.786113634428176
 40
0.8928417881050893
 40
1.0
 40
1.0
 40
1.0
 40
1.0
 10
8.078351095867964
 20
-8.537867154229186
 30
0.0
 10
8.101539854619265
 20
-8.502811325903295
 30
0.0
 10
8.145888175557845
 20
-8.435767326608717
 30
0.0
 10
8.219601104911597
 20
-8.347098025616877
 30
0.0
 10
8.295104436189998
 20
-8.27368297900546
 30
0.0
 10
8.372759623492549
 20
-8.215179460235573
 30
0.0
 10
8.453137723402689
 20
-8.171366341411732
 30
0.0
 10
8.53447467512069
 20
-8.139273306380202
 30
0.0
 10
8.618050144978147
 20
-8.12029599114286
 30
0.0
 10
8.674212069206032
 20
-8.117762332185569
 30
0.0
 10
8.702349493303862
 20
-8.116492955511237
 30
0.0
  0
SPLINE
  5
127
330
1F
100
AcDbEntity
  8
0
  6
Continuous
 62
     7
370
    25
100
AcDbSpline
210
0.0
220
0.0
230
1.0
 70
     8
 71
     3
 72
    31
 73
    27
 74
     0
 42
0.00000001
 43
0.00000001
 40
0.0
 40
0.0
 40
0.0
 40
0.0
 40
0.0337871463469913
 40
0.0666216577242938
 40
0.0992848780959723
 40
0.1313611650426506
 40
0.1635851875953433
 40
0.1961039269870685
 40
0.228902254323817
 40
0.2621580559050075
 40
0.2959912222583161
 40
0.3302178457247997
 40
0.3650598258919544
 40
0.4009507373401082
 40
0.4376203820767376
 40
0.4757075294370921
 40
0.5153806916250491
 40
0.5564135414931649
 40
0.5997648298727308
 40
0.6464241555840876
 40
0.6964314445175667
 40
0.7497815178015587
 40
0.8065733069755321
 40
0.8674355315653994
 40
0.9318867532508746
 40
1.0
 40
1.0
 40
1.0
 40
1.0
 10
6.275077860127948
 20
-17.4743360300558
 30
0.0
 10
6.247473746142692
 20
-17.47386967459699
 30
0.0
 10
6.193043821377183
 20
-17.47295011265958
 30
0.0
 10
6.11239139593773
 20
-17.46343638117139
 30
0.0
 10
6.034108952497786
 20
-17.44814087795903
 30
0.0
 10
5.957810198460177
 20
-17.42672427386795
 30
0.0
 10
5.883103683376495
 20
-17.40050943755251
 30
0.0
 10
5.811007396720695
 20
-17.36635575394952
 30
0.0
 10
5.740719713030024
 20
-17.32702168499357
 30
0.0
 10
5.672428157011942
 20
-17.28222626355527
 30
0.0
 10
5.607415995972109
 20
-17.23090458042689
 30
0.0
 10
5.545317390658272
 20
-17.17414029174039
 30
0.0
 10
5.487692371561304
 20
-17.11051688044298
 30
0.0
 10
5.434058275943976
 20
-17.04103895733526
 30
0.0
 10
5.383084187748234
 20
-16.96634571500251
 30
0.0
 10
5.336194814428984
 20
-16.88541734195709
 30
0.0
 10
5.292823960360929
 20
-16.79857473146748
 30
0.0
 10
5.253180469692404
 20
-16.70525682079239
 30
0.0
 10
5.218031806177484
 20
-16.6041018929326
 30
0.0
 10
5.186984098064063
 20
-16.49395271443012
 30
0.0
 10
5.162469940593995
 20
-16.37383707831606
 30
0.0
 10
5.14148698526112
 20
-16.24471971121069
 30
0.0
 10
5.124562602217622
 20
-16.10604578082484
 30
0.0
 10
5.113008276899253
 20
-15.95774000263795
 30
0.0
 10
5.105866961863493
 20
-15.7998947937118
 30
0.0
 10
5.105231891443374
 20
-15.69162501939519
 30
0.0
 10
5.104905584486922
 20
-15.63599468390196
 30
0.0
  0
SPLINE
  5
128
330
1F
100
AcDbEntity
  8
0
  6
Continuous
 62
     7
370
    25
100
AcDbSpline
210
0.0
220
0.0
230
1.0
 70
     8
 71
     3
 72
    15
 73
    11
 74
     0
 42
0.00000001
 43
0.00000001
 40
0.0
 40
0.0
 40
0.0
 40
0.0
 40
0.1298621417207367
 40
0.2546535308972872
 40
0.3760145541937123
 40
0.4952552518176075
 40
0.6147977192994578
 40
0.7381055541683319
 40
0.8651963000723573
 40
1.0
 40
1.0
 40
1.0
 40
1.0
 10
0.2229825061243736
 20
-8.116492955511237
 30
0.0
 10
0.2751823651873171
 20
-8.117930707053098
 30
0.0
 10
0.3775438251677412
 20
-8.120750069970082
 30
0.0
 10
0.5272718344345626
 20
-8.144212797289061
 30
0.0
 10
0.6689163123381192
 20
-8.183851264443911
 30
0.0
 10
0.8035706643681968
 20
-8.237768762467416
 30
0.0
 10
0.9307513504630255
 20
-8.309417491549333
 30
0.0
 10
1.049254334778968
 20
-8.399797452572965
 30
0.0
 10
1.160319818086778
 20
-8.508338639543094
 30
0.0
 10
1.224700109746002
 20
-8.591709084012324
 30
0.0
 10
1.257838275355143
 20
-8.634621961921496
 30
0.0
  0
SPLINE
  5
129
330
1F
100
AcDbEntity
  8
0
  6
Continuous
 62
     7
370
    25
100
AcDbSpline
210
0.0
220
0.0
230
1.0
 70
     8
 71
     3
 72
    15
 73
    11
 74
     0
 42
0.00000001
 43
0.00000001
 40
0.0
 40
0.0
 40
0.0
 40
0.0
 40
0.1290969581672234
 40
0.2520459672599797
 40
0.3739049644019962
 40
0.5010378352202026
 40
0.6281707060384112
 40
0.7513764634091927
 40
0.8724260133704554
 40
1.0
 40
1.0
 40
1.0
 40
1.0
 10
4.07285430243564
 20
-17.13779756851734
 30
0.0
 10
4.073916401691115
 20
-17.11804818886956
 30
0.0
 10
4.075990020140171
 20
-17.07948994887089
 30
0.0
 10
4.092765680391955
 20
-17.02429084139349
 30
0.0
 10
4.120141892296734
 20
-16.97412240214345
 30
0.0
 10
4.1571472872889
 20
-16.92972582201983
 30
0.0
 10
4.201671583177386
 20
-16.89253851935411
 30
0.0
 10
4.251967788355367
 20
-16.86547372621441
 30
0.0
 10
4.30700732865937
 20
-16.84943331402875
 30
0.0
 10
4.34501726707345
 20
-16.84725079728073
 30
0.0
 10
4.364520969102307
 20
-16.84613090185067
 30
0.0
  0
SPLINE
  5
12A
330
1F
100
AcDbEntity
  8
0
  6
Continuous
 62
     7
370
    25
100
AcDbSpline
210
0.0
220
0.0
230
1.0
 70
     8
 71
     3
 72
    15
 73
    11
 74
     0
 42
0.00000001
 43
0.00000001
 40
0.0
 40
0.0
 40
0.0
 40
0.0
 40
0.1275189266999434
 40
0.2499859477488051
 40
0.3717923515057498
 40
0.4988703527764738
 40
0.6259483540471947
 40
0.7484917380160548
 40
0.8709587590649195
 40
1.0
 40
1.0
 40
1.0
 40
1.0
 10
0.3709312255125614
 20
-16.84613090185067
 30
0.0
 10
0.3904214376855354
 20
-16.84728906853712
 30
0.0
 10
0.4286297200791822
 20
-16.84955951892637
 30
0.0
 10
0.4838688483951025
 20
-16.86513619268633
 30
0.0
 10
0.5338635081086033
 20
-16.89279485315794
 30
0.0
 10
0.5783957528953201
 20
-16.92965763151978
 30
0.0
 10
0.615102229419564
 20
-16.97435329465027
 30
0.0
 10
0.6437465815473745
 20
-17.02394920338642
 30
0.0
 10
0.6591875667593402
 20
-17.0796507959654
 30
0.0
 10
0.6614414785699626
 20
-17.11808047092841
 30
0.0
 10
0.662597892179228
 20
-17.13779756851734
 30
0.0
  0
SPLINE
  5
12B
330
1F
100
AcDbEntity
  8
0
  6
Continuous
 62
     7
370
    25
100
AcDbSpline
210
0.0
220
0.0
230
1.0
 70
     8
 71
     3
 72
    15
 73
    11
 74
     0
 42
0.00000001
 43
0.00000001
 40
0.0
 40
0.0
 40
0.0
 40
0.0
 40
0.1277566033101296
 40
0.2494143553365311
 40
0.3727964764553969
 40
0.5001113325158594
 40
0.6286099407651066
 40
0.7506433738258106
 40
0.873768379142515
 40
1.0
 40
1.0
 40
1.0
 40
1.0
 10
4.364520969102307
 20
-17.42946423518401
 30
0.0
 10
4.344995063450422
 20
-17.4284206380085
 30
0.0
 10
4.306875380832495
 20
-17.426383262953
 30
0.0
 10
4.252089386602329
 20
-17.40922045667474
 30
0.0
 10
4.201682418023593
 20
-17.38239699643092
 30
0.0
 10
4.156894706286622
 20
-17.34513008694836
 30
0.0
 10
4.120356234698472
 20
-17.30012994355267
 30
0.0
 10
4.092730851845491
 20
-17.24992814712079
 30
0.0
 10
4.076140702892558
 20
-17.19514670970585
 30
0.0
 10
4.073958830225692
 20
-17.15707206686553
 30
0.0
 10
4.07285430243564
 20
-17.13779756851734
 30
0.0
  0
SPLINE
  5
12C
330
1F
100
AcDbEntity
  8
0
  6
Continuous
 62
     7
370
    25
100
AcDbSpline
210
0.0
220
0.0
230
1.0
 70
     8
 71
     3
 72
    31
 73
    27
 74
     0
 42
0.00000001
 43
0.00000001
 40
0.0
 40
0.0
 40
0.0
 40
0.0
 40
0.068594622258743
 40
0.1332460424433018
 40
0.1943125864682571
 40
0.251279223116967
 40
0.3045134392563473
 40
0.3542349066533249
 40
0.4004805887739896
 40
0.4434107549384922
 40
0.4840148686163447
 40
0.5232523007732034
 40
0.5610423727283599
 40
0.5979002393643997
 40
0.6335184888561954
 40
0.6683143511696514
 40
0.7024956712863816
 40
0.7366853535134583
 40
0.770293169360789
 40
0.8034372550192489
 40
0.8359129516660287
 40
0.8684602457892906
 40
0.9008465382431826
 40
0.9334665246307077
 40
0.9662575752981228
 40
1.0
 40
1.0
 40
1.0
 40
1.0
 10
5.104905584486922
 20
-15.63599468390196
 30
0.0
 10
5.105233602644386
 20
-15.57989729616771
 30
0.0
 10
5.105870782643233
 20
-15.47092731192024
 30
0.0
 10
5.112959203585474
 20
-15.31214266985344
 30
0.0
 10
5.124734545898646
 20
-15.16318238085826
 30
0.0
 10
5.140871918748922
 20
-15.02403931481984
 30
0.0
 10
5.160509898972516
 20
-14.89467755030212
 30
0.0
 10
5.186725385573832
 20
-14.77544279316583
 30
0.0
 10
5.216538188188793
 20
-14.66578318655276
 30
0.0
 10
5.251090633999298
 20
-14.56534113807674
 30
0.0
 10
5.290078423017639
 20
-14.47276343505458
 30
0.0
 10
5.332512683739706
 20
-14.38633823376082
 30
0.0
 10
5.380077478163284
 20
-14.30619630142105
 30
0.0
 10
5.43005439109039
 20
-14.2310585110011
 30
0.0
 10
5.484466462718204
 20
-14.16215481620876
 30
0.0
 10
5.54176525318545
 20
-14.09851215369024
 30
0.0
 10
5.604187129452578
 20
-14.04160140322642
 30
0.0
 10
5.669610137726025
 20
-13.98975510084135
 30
0.0
 10
5.738626602117741
 20
-13.94430562916941
 30
0.0
 10
5.809269268260946
 20
-13.90427289055364
 30
0.0
 10
5.882024374116881
 20
-13.87007302329604
 30
0.0
 10
5.957090557014816
 20
-13.8431825874365
 30
0.0
 10
6.033793114904497
 20
-13.82097174066388
 30
0.0
 10
6.112400181595791
 20
-13.80578279301732
 30
0.0
 10
6.193041545532112
 20
-13.79622588452793
 30
0.0
 10
6.247472980330261
 20
-13.79531221678773
 30
0.0
 10
6.275077860127948
 20
-13.79484885056862
 30
0.0
  0
SPLINE
  5
12D
330
1F
100
AcDbEntity
  8
0
  6
Continuous
 62
     7
370
    25
100
AcDbSpline
210
0.0
220
0.0
230
1.0
 70
     8
 71
     3
 72
    15
 73
    11
 74
     0
 42
0.00000001
 43
0.00000001
 40
0.0
 40
0.0
 40
0.0
 40
0.0
 40
0.1275189266999431
 40
0.2499859477488053
 40
0.37179235150575
 40
0.4988703527764732
 40
0.6259483540471943
 40
0.7484917380160548
 40
0.8709587590649194
 40
0.9999999999999999
 40
0.9999999999999999
 40
0.9999999999999999
 40
0.9999999999999999
 10
4.364520969102307
 20
-16.84613090185067
 30
0.0
 10
4.384011181275279
 20
-16.84728906853712
 30
0.0
 10
4.422219463668925
 20
-16.84955951892637
 30
0.0
 10
4.477458591984848
 20
-16.86513619268632
 30
0.0
 10
4.527453251698348
 20
-16.89279485315794
 30
0.0
 10
4.571985496485065
 20
-16.92965763151978
 30
0.0
 10
4.608691973009309
 20
-16.97435329465028
 30
0.0
 10
4.637336325137121
 20
-17.02394920338643
 30
0.0
 10
4.652777310349086
 20
-17.0796507959654
 30
0.0
 10
4.655031222159707
 20
-17.11808047092841
 30
0.0
 10
4.656187635768973
 20
-17.13779756851734
 30
0.0
  0
SPLINE
  5
12E
330
1F
100
AcDbEntity
  8
0
  6
Continuous
 62
     7
370
    25
100
AcDbSpline
210
0.0
220
0.0
230
1.0
 70
     8
 71
     3
 72
    23
 73
    19
 74
     0
 42
0.00000001
 43
0.00000001
 40
0.0
 40
0.0
 40
0.0
 40
0.0
 40
0.0715786576891419
 40
0.139629224692848
 40
0.2047966973966661
 40
0.268134963396682
 40
0.3298137469867308
 40
0.3913013977745601
 40
0.453433515097054
 40
0.5165516903197664
 40
0.5796312707049233
 40
0.6411189214927526
 40
0.7012940466987742
 40
0.760810335676134
 40
0.8199317217781442
 40
0.8789195754993824
 40
0.9389828222504473
 40
1.0
 40
1.0
 40
1.0
 40
1.0
 10
-7.417141692593577
 20
-10.76392885294714
 30
0.0
 10
-7.466283670129018
 20
-10.76278167761756
 30
0.0
 10
-7.562145431786335
 20
-10.76054387088821
 30
0.0
 10
-7.701685178899192
 20
-10.74125140645374
 30
0.0
 10
-7.833064597296716
 20
-10.70977904776006
 30
0.0
 10
-7.956276300650321
 20
-10.66581350626879
 30
0.0
 10
-8.071018553227871
 20
-10.60838618217851
 30
0.0
 10
-8.177519408039794
 20
-10.53842670037478
 30
0.0
 10
-8.276338933908761
 20
-10.45629444568623
 30
0.0
 10
-8.364363143093916
 20
-10.36127800219927
 30
0.0
 10
-8.443607025804356
 20
-10.25959604490387
 30
0.0
 10
-8.513532845780043
 20
-10.15364016041789
 30
0.0
 10
-8.57199027682948
 20
-10.04367693594397
 30
0.0
 10
-8.619542887025215
 20
-9.930406411900426
 30
0.0
 10
-8.657947751995012
 20
-9.814542518357293
 30
0.0
 10
-8.684714455764139
 20
-9.695031050788069
 30
0.0
 10
-8.700144203746191
 20
-9.572195466547898
 30
0.0
 10
-8.702508649283553
 20
-9.489098130830143
 30
0.0
 10
-8.70370018618332
 20
-9.447222122177905
 30
0.0
  0
SPLINE
  5
12F
330
1F
100
AcDbEntity
  8
0
  6
Continuous
 62
     7
370
    25
100
AcDbSpline
210
0.0
220
0.0
230
1.0
 70
     8
 71
     3
 72
    15
 73
    11
 74
     0
 42
0.00000001
 43
0.00000001
 40
0.0
 40
0.0
 40
0.0
 40
0.0
 40
0.1185218400132611
 40
0.2362547631617472
 40
0.356174433990932
 40
0.4772496548985592
 40
0.6015398708217021
 40
0.729618382168043
 40
0.8621582661414398
 40
0.9999999999999999
 40
0.9999999999999999
 40
0.9999999999999999
 40
0.9999999999999999
 10
6.947441640739757
 20
-8.619898404229186
 30
0.0
 10
6.969568579052245
 20
-8.650101985615475
 30
0.0
 10
7.013675172148733
 20
-8.710308104304284
 30
0.0
 10
7.068922272183866
 20
-8.808479261404969
 30
0.0
 10
7.116879667167542
 20
-8.91118985575512
 30
0.0
 10
7.155212628182309
 20
-9.02010015284212
 30
0.0
 10
7.186252129378862
 20
-9.133919733015054
 30
0.0
 10
7.208708948119042
 20
-9.25346227772936
 30
0.0
 10
7.221878566700883
 20
-9.378692189090218
 30
0.0
 10
7.224467264049319
 20
-9.464018744566923
 30
0.0
 10
7.22578699330386
 20
-9.507518596536878
 30
0.0
  0
SPLINE
  5
130
330
1F
100
AcDbEntity
  8
0
  6
Continuous
 62
     7
370
    25
100
AcDbSpline
210
0.0
220
0.0
230
1.0
 70
     8
 71
     3
 72
    15
 73
    11
 74
     0
 42
0.00000001
 43
0.00000001
 40
0.0
 40
0.0
 40
0.0
 40
0.0
 40
0.1261777183170041
 40
0.2488206074857903
 40
0.3715399692351545
 40
0.4999837069108807
 40
0.6272441978753719
 40
0.7492255210762662
 40
0.8722979504176512
 40
1.0
 40
1.0
 40
1.0
 40
1.0
 10
0.662597892179228
 20
-17.13779756851734
 30
0.0
 10
0.6614022914337464
 20
-17.15704089827983
 30
0.0
 10
0.6590445843221484
 20
-17.19498846196552
 30
0.0
 10
0.6437819761931741
 20
-17.25026992458944
 30
0.0
 10
0.6148839259631319
 20
-17.29989682905951
 30
0.0
 10
0.5786489330407977
 20
-17.34519896718784
 30
0.0
 10
0.5338524994825958
 20
-17.38213983779603
 30
0.0
 10
0.4837506530598785
 20
-17.40956318252833
 30
0.0
 10
0.4287593949028029
 20
-17.42625516243774
 30
0.0
 10
0.390443071554582
 20
-17.42838145953984
 30
0.0
 10
0.3709312255125614
 20
-17.42946423518401
 30
0.0
  0
SPLINE
  5
131
330
1F
100
AcDbEntity
  8
0
  6
Continuous
 62
     7
370
    25
100
AcDbSpline
210
0.0
220
0.0
230
1.0
 70
     8
 71
     3
 72
    11
 73
     7
 74
     0
 42
0.00000001
 43
0.00000001
 40
0.0
 40
0.0
 40
0.0
 40
0.0
 40
0.2252775478670122
 40
0.4635231951764798
 40
0.7203235553269187
 40
1.0
 40
1.0
 40
1.0
 40
1.0
 10
8.702349493303862
 20
-8.116492955511237
 30
0.0
 10
8.724175819790553
 20
-8.117683482106155
 30
0.0
 10
8.769084904996184
 20
-8.120133067945686
 30
0.0
 10
8.837067494800433
 20
-8.137343892587543
 30
0.0
 10
8.907110946710036
 20
-8.164821915140541
 30
0.0
 10
8.952253333960583
 20
-8.190662137805528
 30
0.0
 10
8.975786993303862
 20
-8.204133179870212
 30
0.0
  0
SPLINE
  5
132
330
1F
100
AcDbEntity
  8
0
  6
Continuous
 62
     7
370
    25
100
AcDbSpline
210
0.0
220
0.0
230
1.0
 70
     8
 71
     3
 72
    15
 73
    11
 74
     0
 42
0.00000001
 43
0.00000001
 40
0.0
 40
0.0
 40
0.0
 40
0.0
 40
0.1185218400132611
 40
0.2362547631617472
 40
0.356174433990932
 40
0.4772496548985592
 40
0.6015398708217021
 40
0.729618382168043
 40
0.8621582661414398
 40
0.9999999999999999
 40
0.9999999999999999
 40
0.9999999999999999
 40
0.9999999999999999
 10
-6.379481436183322
 20
-8.619898404229186
 30
0.0
 10
-6.357354497870833
 20
-8.650101985615475
 30
0.0
 10
-6.313247904774343
 20
-8.710308104304284
 30
0.0
 10
-6.258000804739213
 20
-8.808479261404969
 30
0.0
 10
-6.210043409755536
 20
-8.91118985575512
 30
0.0
 10
-6.171710448740768
 20
-9.02010015284212
 30
0.0
 10
-6.14067094754422
 20
-9.133919733015054
 30
0.0
 10
-6.118214128804034
 20
-9.25346227772936
 30
0.0
 10
-6.105044510222196
 20
-9.378692189090218
 30
0.0
 10
-6.102455812873761
 20
-9.464018744566923
 30
0.0
 10
-6.101136083619219
 20
-9.507518596536878
 30
0.0
  0
SPLINE
  5
133
330
1F
100
AcDbEntity
  8
0
  6
Continuous
 62
     7
370
    25
100
AcDbSpline
210
0.0
220
0.0
230
1.0
 70
     8
 71
     3
 72
    15
 73
    11
 74
     0
 42
0.00000001
 43
0.00000001
 40
0.0
 40
0.0
 40
0.0
 40
0.0
 40
0.1277566033101298
 40
0.2494143553365304
 40
0.3727964764553965
 40
0.5001113325158599
 40
0.6286099407651068
 40
0.7506433738258101
 40
0.8737683791425149
 40
1.0
 40
1.0
 40
1.0
 40
1.0
 10
0.3709312255125614
 20
-17.42946423518401
 30
0.0
 10
0.3514053198606773
 20
-17.4284206380085
 30
0.0
 10
0.3132856372427498
 20
-17.426383262953
 30
0.0
 10
0.2584996430125842
 20
-17.40922045667473
 30
0.0
 10
0.2080926744338467
 20
-17.38239699643092
 30
0.0
 10
0.1633049626968773
 20
-17.34513008694836
 30
0.0
 10
0.1267664911087261
 20
-17.30012994355267
 30
0.0
 10
0.0991411082557466
 20
-17.24992814712079
 30
0.0
 10
0.0825509593028136
 20
-17.19514670970585
 30
0.0
 10
0.0803690866359474
 20
-17.15707206686553
 30
0.0
 10
0.0792645588458948
 20
-17.13779756851734
 30
0.0
  0
SPLINE
  5
134
330
1F
100
AcDbEntity
  8
0
  6
Continuous
 62
     7
370
    25
100
AcDbSpline
210
0.0
220
0.0
230
1.0
 70
     8
 71
     3
 72
    15
 73
    11
 74
     0
 42
0.00000001
 43
0.00000001
 40
0.0
 40
0.0
 40
0.0
 40
0.0
 40
0.128044807961121
 40
0.253767900024491
 40
0.3774284265813018
 40
0.5005508414825333
 40
0.6232958832424768
 40
0.7465783319335081
 40
0.8723475406047174
 40
1.0
 40
1.0
 40
1.0
 40
1.0
 10
-8.70370018618332
 20
-9.447222122177905
 30
0.0
 10
-8.702641044852726
 20
-9.407927291760329
 30
0.0
 10
-8.700541966603684
 20
-9.330050127073461
 30
0.0
 10
-8.68731117920999
 20
-9.214784582543173
 30
0.0
 10
-8.66386288614198
 20
-9.10275613001462
 30
0.0
 10
-8.631686562192844
 20
-8.993871682045745
 30
0.0
 10
-8.590135316009603
 20
-8.888313548061662
 30
0.0
 10
-8.539303096793386
 20
-8.7860174844385
 30
0.0
 10
-8.4791107190046
 20
-8.687092344578042
 30
0.0
 10
-8.432638045248135
 20
-8.624689210870228
 30
0.0
 10
-8.409229032337167
 20
-8.593255776024058
 30
0.0
  0
SPLINE
  5
135
330
1F
100
AcDbEntity
  8
0
  6
Continuous
 62
     7
370
    25
100
AcDbSpline
210
0.0
220
0.0
230
1.0
 70
     8
 71
     3
 72
    23
 73
    19
 74
     0
 42
0.00000001
 43
0.00000001
 40
0.0
 40
0.0
 40
0.0
 40
0.0
 40
0.0683846151037686
 40
0.1344755875434506
 40
0.1983910577839559
 40
0.2607534774484861
 40
0.321829222807649
 40
0.3830372384795243
 40
0.4446531231064265
 40
0.5073980112040055
 40
0.5698252379730249
 40
0.6307776406313129
 40
0.6909286865237164
 40
0.7509451326917352
 40
0.8110494767293274
 40
0.8723308525469927
 40
0.935004093589405
 40
1.0
 40
1.0
 40
1.0
 40
1.0
 10
-8.389597622080757
 20
-9.507518596536878
 30
0.0
 10
-8.388058015651605
 20
-9.541219060783995
 30
0.0
 10
-8.385030441703407
 20
-9.607489664533697
 30
0.0
 10
-8.37091529853696
 20
-9.70446044761616
 30
0.0
 10
-8.34866652476274
 20
-9.796833789779798
 30
0.0
 10
-8.317397462124234
 20
-9.88391683175326
 30
0.0
 10
-8.279530616869351
 20
-9.966846959268555
 30
0.0
 10
-8.23314490008341
 20
-10.04500899623718
 30
0.0
 10
-8.17780534613091
 20
-10.11804692628708
 30
0.0
 10
-8.116079646746543
 20
-10.18661406388021
 30
0.0
 10
-8.04737255141093
 20
-10.24767482504791
 30
0.0
 10
-7.975089804189742
 20
-10.30232660128219
 30
0.0
 10
-7.898196239200551
 20
-10.34813219801155
 30
0.0
 10
-7.817298155706597
 20
-10.385312087765
 30
0.0
 10
-7.73252637056242
 20
-10.4144184038241
 30
0.0
 10
-7.643854175446682
 20
-10.43428622450702
 30
0.0
 10
-7.55145605909193
 20
-10.44759333138188
 30
0.0
 10
-7.488470325059155
 20
-10.44907299658241
 30
0.0
 10
-7.456404513106397
 20
-10.44982628884457
 30
0.0
  0
SPLINE
  5
136
330
1F
100
AcDbEntity
  8
0
  6
Continuous
 62
     7
370
    25
100
AcDbSpline
210
0.0
220
0.0
230
1.0
 70
     8
 71
     3
 72
    19
 73
    15
 74
     0
 42
0.00000001
 43
0.00000001
 40
0.0
 40
0.0
 40
0.0
 40
0.0
 40
0.0825922633314359
 40
0.1638788940984965
 40
0.2456587396295031
 40
0.3277256953541215
 40
0.4086099609103187
 40
0.4857490859539302
 40
0.5591690561972774
 40
0.6302684758575461
 40
0.7053060284320698
 40
0.7920649660966078
 40
0.8897964374100892
 40
1.0
 40
1.0
 40
1.0
 40
1.0
 10
5.870518563816681
 20
-10.44982628884457
 30
0.0
 10
5.901869711420699
 20
-10.44921823218467
 30
0.0
 10
5.964076402348244
 20
-10.44801173112811
 30
0.0
 10
6.056717259691335
 20
-10.4362798202171
 30
0.0
 10
6.147856787090855
 20
-10.41730954459602
 30
0.0
 10
6.237117770358077
 20
-10.39141955451235
 30
0.0
 10
6.322688616274778
 20
-10.35984270240562
 30
0.0
 10
6.401934166336005
 20
-10.32173984475654
 30
0.0
 10
6.474814381962133
 20
-10.27959009801361
 30
0.0
 10
6.542931348548433
 20
-10.23138042296519
 30
0.0
 10
6.609002341900466
 20
-10.17237223596218
 30
0.0
 10
6.674544828315206
 20
-10.09873651497361
 30
0.0
 10
6.744821481678478
 20
-10.01164898719001
 30
0.0
 10
6.788811074422241
 20
-9.946103321212085
 30
0.0
 10
6.812125134329501
 20
-9.911364750383033
 30
0.0
  0
SPLINE
  5
137
330
1F
100
AcDbEntity
  8
0
  6
Continuous
 62
     7
370
    25
100
AcDbSpline
210
0.0
220
0.0
230
1.0
 70
     8
 71
     3
 72
    23
 73
    19
 74
     0
 42
0.00000001
 43
0.00000001
 40
0.0
 40
0.0
 40
0.0
 40
0.0
 40
0.0683846151037686
 40
0.1344755875434505
 40
0.1983910577839561
 40
0.2607534774484861
 40
0.3218292228076494
 40
0.3830372384795246
 40
0.4446531231064266
 40
0.5073980112040051
 40
0.5698252379730245
 40
0.630777640631313
 40
0.6909286865237171
 40
0.7509451326917354
 40
0.8110494767293275
 40
0.8723308525469928
 40
0.935004093589405
 40
1.0
 40
1.0
 40
1.0
 40
1.0
 10
4.937325454842322
 20
-9.507518596536878
 30
0.0
 10
4.938865061271474
 20
-9.541219060783995
 30
0.0
 10
4.941892635219675
 20
-9.607489664533698
 30
0.0
 10
4.95600777838611
 20
-9.704460447616164
 30
0.0
 10
4.978256552160344
 20
-9.796833789779798
 30
0.0
 10
5.009525614798841
 20
-9.883916831753258
 30
0.0
 10
5.047392460053731
 20
-9.966846959268556
 30
0.0
 10
5.093778176839668
 20
-10.04500899623718
 30
0.0
 10
5.149117730792168
 20
-10.11804692628708
 30
0.0
 10
5.210843430176536
 20
-10.18661406388021
 30
0.0
 10
5.279550525512147
 20
-10.24767482504791
 30
0.0
 10
5.351833272733339
 20
-10.30232660128219
 30
0.0
 10
5.428726837722524
 20
-10.34813219801154
 30
0.0
 10
5.509624921216482
 20
-10.385312087765
 30
0.0
 10
5.594396706360658
 20
-10.4144184038241
 30
0.0
 10
5.683068901476396
 20
-10.43428622450702
 30
0.0
 10
5.775467017831144
 20
-10.44759333138189
 30
0.0
 10
5.838452751863923
 20
-10.44907299658241
 30
0.0
 10
5.870518563816681
 20
-10.44982628884457
 30
0.0
  0
SPLINE
  5
138
330
1F
100
AcDbEntity
  8
0
  6
Continuous
 62
     7
370
    25
100
AcDbSpline
210
0.0
220
0.0
230
1.0
 70
     8
 71
     3
 72
    31
 73
    27
 74
     0
 42
0.00000001
 43
0.00000001
 40
0.0
 40
0.0
 40
0.0
 40
0.0
 40
0.0650632896172779
 40
0.1267731664665229
 40
0.1855157632260784
 40
0.2407646791677147
 40
0.2929797960235978
 40
0.3422503727797668
 40
0.3889192861856602
 40
0.4327756640583093
 40
0.4746284326311177
 40
0.5147746906379526
 40
0.5536058934984426
 40
0.5914264064311724
 40
0.6280281199460667
 40
0.6638036341103201
 40
0.6989843361316633
 40
0.7335914893067055
 40
0.7676284691511398
 40
0.8012083477865917
 40
0.8342638397266231
 40
0.8669806947287759
 40
0.8997197415181603
 40
0.9327019124985382
 40
0.9661758834327495
 40
1.0
 40
1.0
 40
1.0
 40
1.0
 10
7.48311071269205
 20
-15.63599468390196
 30
0.0
 10
7.482459128148129
 20
-15.68951859184286
 30
0.0
 10
7.48118954223663
 20
-15.79380774370169
 30
0.0
 10
7.474610835468915
 20
-15.94633871902147
 30
0.0
 10
7.461652204290185
 20
-16.09033676232004
 30
0.0
 10
7.445442215981412
 20
-16.22614722477876
 30
0.0
 10
7.422991253007983
 20
-16.35320484361171
 30
0.0
 10
7.395386086756702
 20
-16.47194929207962
 30
0.0
 10
7.364735763934942
 20
-16.58289336374506
 30
0.0
 10
7.326900969825132
 20
-16.685128175355
 30
0.0
 10
7.285490259477903
 20
-16.7800798982198
 30
0.0
 10
7.240435063302522
 20
-16.8687470465495
 30
0.0
 10
7.192165237216845
 20
-16.95191333922913
 30
0.0
 10
7.139576492213815
 20
-17.02891308616029
 30
0.0
 10
7.083523079017389
 20
-17.10029174323316
 30
0.0
 10
7.0228052902244
 20
-17.16478936588469
 30
0.0
 10
6.959134705122418
 20
-17.22396003784784
 30
0.0
 10
6.891722289288466
 20
-17.27661166531
 30
0.0
 10
6.821310738056312
 20
-17.32269646994635
 30
0.0
 10
6.74935166113142
 20
-17.36391032033417
 30
0.0
 10
6.67456827778414
 20
-17.39714301538402
 30
0.0
 10
6.59865532505463
 20
-17.42567805636177
 30
0.0
 10
6.520526958939678
 20
-17.44747850824792
 30
0.0
 10
6.440280568250236
 20
-17.46255236376852
 30
0.0
 10
6.358324332321547
 20
-17.4731242122233
 30
0.0
 10
6.30292276724029
 20
-17.4739306920986
 30
0.0
 10
6.275077860127948
 20
-17.4743360300558
 30
0.0
  0
SPLINE
  5
139
330
1F
100
AcDbEntity
  8
0
  6
Continuous
 62
     7
370
    25
100
AcDbSpline
210
0.0
220
0.0
230
1.0
 70
     8
 71
     3
 72
    19
 73
    15
 74
     0
 42
0.00000001
 43
0.00000001
 40
0.0
 40
0.0
 40
0.0
 40
0.0
 40
0.0825922633314359
 40
0.1638788940984965
 40
0.2456587396295031
 40
0.3277256953541215
 40
0.4086099609103187
 40
0.4857490859539302
 40
0.5591690561972774
 40
0.6302684758575461
 40
0.7053060284320698
 40
0.7920649660966078
 40
0.8897964374100892
 40
1.0
 40
1.0
 40
1.0
 40
1.0
 10
-7.456404513106397
 20
-10.44982628884457
 30
0.0
 10
-7.42505336550238
 20
-10.44921823218467
 30
0.0
 10
-7.362846674574832
 20
-10.44801173112811
 30
0.0
 10
-7.270205817231747
 20
-10.4362798202171
 30
0.0
 10
-7.179066289832222
 20
-10.41730954459602
 30
0.0
 10
-7.089805306565
 20
-10.39141955451235
 30
0.0
 10
-7.004234460648303
 20
-10.35984270240562
 30
0.0
 10
-6.924988910587071
 20
-10.32173984475654
 30
0.0
 10
-6.852108694960943
 20
-10.27959009801361
 30
0.0
 10
-6.783991728374647
 20
-10.23138042296519
 30
0.0
 10
-6.71792073502261
 20
-10.17237223596218
 30
0.0
 10
-6.652378248607874
 20
-10.09873651497361
 30
0.0
 10
-6.582101595244598
 20
-10.01164898719001
 30
0.0
 10
-6.538112002500837
 20
-9.946103321212085
 30
0.0
 10
-6.514797942593577
 20
-9.911364750383033
 30
0.0
  0
SPLINE
  5
13A
330
1F
100
AcDbEntity
  8
0
  6
Continuous
 62
     7
370
    25
100
AcDbSpline
210
0.0
220
0.0
230
1.0
 70
     8
 71
     3
 72
    31
 73
    27
 74
     0
 42
0.00000001
 43
0.00000001
 40
0.0
 40
0.0
 40
0.0
 40
0.0
 40
0.0650632896172779
 40
0.1267731664665228
 40
0.1855157632260784
 40
0.2407646791677146
 40
0.2929797960235977
 40
0.3422503727797667
 40
0.3889192861856602
 40
0.4327756640583105
 40
0.4746284326311175
 40
0.5147746906379526
 40
0.5536058934984425
 40
0.5914264064311724
 40
0.6280281199460664
 40
0.6638036341103202
 40
0.6989843361316634
 40
0.7335914893067054
 40
0.7676284691511398
 40
0.8012083477865918
 40
0.834263839726623
 40
0.866980694728776
 40
0.8997197415181604
 40
0.932701912498538
 40
0.9661758834327495
 40
1.0
 40
1.0
 40
1.0
 40
1.0
 10
3.489520969102305
 20
-15.63599468390196
 30
0.0
 10
3.488869384558382
 20
-15.68951859184286
 30
0.0
 10
3.487599798646886
 20
-15.79380774370169
 30
0.0
 10
3.481021091879168
 20
-15.94633871902148
 30
0.0
 10
3.468062460700438
 20
-16.09033676232004
 30
0.0
 10
3.451852472391665
 20
-16.22614722477876
 30
0.0
 10
3.429401509418236
 20
-16.35320484361171
 30
0.0
 10
3.40179634316696
 20
-16.47194929207962
 30
0.0
 10
3.371146020345192
 20
-16.58289336374506
 30
0.0
 10
3.333311226235387
 20
-16.685128175355
 30
0.0
 10
3.291900515888159
 20
-16.7800798982198
 30
0.0
 10
3.246845319712774
 20
-16.86874704654949
 30
0.0
 10
3.198575493627101
 20
-16.95191333922914
 30
0.0
 10
3.14598674862407
 20
-17.02891308616029
 30
0.0
 10
3.089933335427643
 20
-17.10029174323316
 30
0.0
 10
3.029215546634654
 20
-17.1647893658847
 30
0.0
 10
2.96554496153267
 20
-17.22396003784784
 30
0.0
 10
2.898132545698721
 20
-17.27661166531
 30
0.0
 10
2.827720994466567
 20
-17.32269646994636
 30
0.0
 10
2.755761917541674
 20
-17.36391032033417
 30
0.0
 10
2.680978534194393
 20
-17.39714301538403
 30
0.0
 10
2.605065581464885
 20
-17.42567805636177
 30
0.0
 10
2.526937215349931
 20
-17.44747850824792
 30
0.0
 10
2.446690824660489
 20
-17.46255236376852
 30
0.0
 10
2.3647345887318
 20
-17.4731242122233
 30
0.0
 10
2.309333023650545
 20
-17.4739306920986
 30
0.0
 10
2.281488116538202
 20
-17.47433603005581
 30
0.0
  0
SPLINE
  5
13B
330
1F
100
AcDbEntity
  8
0
  6
Continuous
 62
     7
370
    25
100
AcDbSpline
210
0.0
220
0.0
230
1.0
 70
     8
 71
     3
 72
    15
 73
    11
 74
     0
 42
0.00000001
 43
0.00000001
 40
0.0
 40
0.0
 40
0.0
 40
0.0
 40
0.1290969581672234
 40
0.25204596725998
 40
0.3739049644019958
 40
0.501037835220202
 40
0.6281707060384116
 40
0.7513764634091935
 40
0.8724260133704552
 40
1.0
 40
1.0
 40
1.0
 40
1.0
 10
0.0792645588458948
 20
-17.13779756851734
 30
0.0
 10
0.0803266581013704
 20
-17.11804818886956
 30
0.0
 10
0.0824002765504255
 20
-17.07948994887089
 30
0.0
 10
0.0991759368022116
 20
-17.02429084139349
 30
0.0
 10
0.1265521487069868
 20
-16.97412240214345
 30
0.0
 10
0.1635575436991555
 20
-16.92972582201983
 30
0.0
 10
0.2080818395876405
 20
-16.8925385193541
 30
0.0
 10
0.2583780447656211
 20
-16.86547372621441
 30
0.0
 10
0.313417585069626
 20
-16.84943331402875
 30
0.0
 10
0.3514275234837051
 20
-16.84725079728073
 30
0.0
 10
0.3709312255125614
 20
-16.84613090185067
 30
0.0
  0
SPLINE
  5
13C
330
1F
100
AcDbEntity
  8
0
  6
Continuous
 62
     7
370
    25
100
AcDbSpline
210
0.0
220
0.0
230
1.0
 70
     8
 71
     3
 72
    15
 73
    11
 74
     0
 42
0.00000001
 43
0.00000001
 40
0.0
 40
0.0
 40
0.0
 40
0.0
 40
0.1288352544875554
 40
0.2535893349864766
 40
0.3746432573141698
 40
0.495340042237792
 40
0.61632477463579
 40
0.7397593354405144
 40
0.866842320380546
 40
1.0
 40
1.0
 40
1.0
 40
1.0
 10
4.917694044585911
 20
-8.593255776024058
 30
0.0
 10
4.949401727361743
 20
-8.555386905936006
 30
0.0
 10
5.011812673970011
 20
-8.48084875548553
 30
0.0
 10
5.117369029323873
 20
-8.38291042970391
 30
0.0
 10
5.231669225666253
 20
-8.300866654526846
 30
0.0
 10
5.353280851766415
 20
-8.232859518388631
 30
0.0
 10
5.483617325827006
 20
-8.181185871395847
 30
0.0
 10
5.620926616864591
 20
-8.142678289163575
 30
0.0
 10
5.766772203091207
 20
-8.121100278130296
 30
0.0
 10
5.866477423929404
 20
-8.118052444508306
 30
0.0
 10
5.917493724073091
 20
-8.116492955511237
 30
0.0
  0
SPLINE
  5
13D
330
1F
100
AcDbEntity
  8
0
  6
Continuous
 62
     7
370
    25
100
AcDbSpline
210
0.0
220
0.0
230
1.0
 70
     8
 71
     3
 72
    19
 73
    15
 74
     0
 42
0.00000001
 43
0.00000001
 40
0.0
 40
0.0
 40
0.0
 40
0.0
 40
0.0938065293523324
 40
0.1913381281363396
 40
0.2951906166251719
 40
0.4103123367232985
 40
0.4719302510512783
 40
0.5364251593464319
 40
0.6031187283036319
 40
0.6741176724905963
 40
0.7493320232258877
 40
0.8282833841715626
 40
0.9120398092627613
 40
1.0
 40
1.0
 40
1.0
 40
1.0
 10
8.64275414073976
 20
-8.430595519613803
 30
0.0
 10
8.61754840722874
 20
-8.432275556982372
 30
0.0
 10
8.566136017263995
 20
-8.435702346221035
 30
0.0
 10
8.49065151785425
 20
-8.462641153988017
 30
0.0
 10
8.417404312352916
 20
-8.506166394101177
 30
0.0
 10
8.359232650016903
 20
-8.554437505952041
 30
0.0
 10
8.31419039714208
 20
-8.600985303416424
 30
0.0
 10
8.282050171611314
 20
-8.641633705983415
 30
0.0
 10
8.252567424657634
 20
-8.687212337511852
 30
0.0
 10
8.224397204257139
 20
-8.736942021315189
 30
0.0
 10
8.198730910047988
 20
-8.791671867347432
 30
0.0
 10
8.174776240844256
 20
-8.850855080769335
 30
0.0
 10
8.153117377921877
 20
-8.914560209539115
 30
0.0
 10
8.140767133697638
 20
-8.958942729759384
 30
0.0
 10
8.134440839457708
 20
-8.981677250383033
 30
0.0
  0
SPLINE
  5
13E
330
1F
100
AcDbEntity
  8
0
  6
Continuous
 62
     7
370
    25
100
AcDbSpline
210
0.0
220
0.0
230
1.0
 70
     8
 71
     3
 72
    31
 73
    27
 74
     0
 42
0.00000001
 43
0.00000001
 40
0.0
 40
0.0
 40
0.0
 40
0.0
 40
0.0337881161627104
 40
0.0671939323738799
 40
0.0998624108568252
 40
0.1325666121262584
 40
0.1651511732547862
 40
0.1979131873557918
 40
0.2313190035669617
 40
0.2650832782673732
 40
0.2992553087581144
 40
0.3343985665049783
 40
0.3699428235093075
 40
0.4062835607000611
 40
0.4440638196985081
 40
0.482997706872775
 40
0.5233544466133043
 40
0.5655365896041485
 40
0.609612924065819
 40
0.6563908113764164
 40
0.7058854949364568
 40
0.7583245002617306
 40
0.8138317829411498
 40
0.8727945590393895
 40
0.9347222295400733
 40
1.0
 40
1.0
 40
1.0
 40
1.0
 10
6.275077860127948
 20
-13.79484885056862
 30
0.0
 10
6.302913338612289
 20
-13.79533666574428
 30
0.0
 10
6.358269347507973
 20
-13.79630677664857
 30
0.0
 10
6.440109722753891
 20
-13.80563071918317
 30
0.0
 10
6.520059404468487
 20
-13.8211018422801
 30
0.0
 10
6.59777754317197
 20
-13.84302281686277
 30
0.0
 10
6.673902529639744
 20
-13.87021849352218
 30
0.0
 10
6.747838937285396
 20
-13.90430561063136
 30
0.0
 10
6.820046018927441
 20
-13.94398447797582
 30
0.0
 10
6.889376306447345
 20
-13.99060835528245
 30
0.0
 10
6.95659092179342
 20
-14.04259063147921
 30
0.0
 10
7.020038884765522
 20
-14.10135330028255
 30
0.0
 10
7.079725970662979
 20
-14.16630301955121
 30
0.0
 10
7.13640127604921
 20
-14.23674488343782
 30
0.0
 10
7.18845687324846
 20
-14.3140299682714
 30
0.0
 10
7.238030305483889
 20
-14.39681407808555
 30
0.0
 10
7.282402341385555
 20
-14.48654494287935
 30
0.0
 10
7.325137016564147
 20
-14.5817254107204
 30
0.0
 10
7.362024003303395
 20
-14.68498906952707
 30
0.0
 10
7.395290248575705
 20
-14.79575383004516
 30
0.0
 10
7.422169217150639
 20
-14.9153280168985
 30
0.0
 10
7.444558489488779
 20
-15.04308426219361
 30
0.0
 10
7.461903385434385
 20
-15.17949174543377
 30
0.0
 10
7.474536027512938
 20
-15.32425806094553
 30
0.0
 10
7.481209112554276
 20
-15.47747845158629
 30
0.0
 10
7.482465813760949
 20
-15.58223630076346
 30
0.0
 10
7.48311071269205
 20
-15.63599468390196
 30
0.0
  0
CIRCLE
  5
13F
330
1F
100
AcDbEntity
  8
0
  6
Continuous
 62
     7
370
    25
100
AcDbCircle
 10
-7.75
 20
79.0
 30
0.0
 40
1.5
  0
CIRCLE
  5
140
330
1F
100
AcDbEntity
  8
0
  6
Continuous
 62
     7
370
    25
100
AcDbCircle
 10
-7.75
 20
63.5
 30
0.0
 40
1.5
  0
SPLINE
  5
145
330
1F
100
AcDbEntity
  8
0
  6
Continuous
 62
     7
370
    25
100
AcDbSpline
210
0.0
220
0.0
230
1.0
 70
     8
 71
     3
 72
    15
 73
    11
 74
     0
 42
0.00000001
 43
0.00000001
 40
0.0
 40
0.0
 40
0.0
 40
0.0
 40
0.1105883385953354
 40
0.2245417540535964
 40
0.3425034940501046
 40
0.4643240984173573
 40
0.5907560327017662
 40
0.7222274753555133
 40
0.8588428362087244
 40
1.0
 40
1.0
 40
1.0
 40
1.0
 10
7.036496129358717
 20
-16.51450029287631
 30
0.0
 10
7.047047897152481
 20
-16.48327055340999
 30
0.0
 10
7.068472510984941
 20
-16.41986078916652
 30
0.0
 10
7.096084285255683
 20
-16.32149713708604
 30
0.0
 10
7.117829684459378
 20
-16.21829437314809
 30
0.0
 10
7.137393050208807
 20
-16.11086925642965
 30
0.0
 10
7.150746106106161
 20
-15.99842955541867
 30
0.0
 10
7.161493919389405
 20
-15.88132317150292
 30
0.0
 10
7.16782460632866
 20
-15.75946180926747
 30
0.0
 10
7.168609357399994
 20
-15.67666681807222
 30
0.0
 10
7.169008148589486
 20
-15.63459244031221
 30
0.0
  0
SPLINE
  5
146
330
1F
100
AcDbEntity
  8
0
  6
Continuous
 62
     7
370
    25
100
AcDbSpline
210
0.0
220
0.0
230
1.0
 70
     8
 71
     3
 72
    27
 73
    23
 74
     0
 42
0.00000001
 43
0.00000001
 40
0.0
 40
0.0
 40
0.0
 40
0.0
 40
0.0656811979906381
 40
0.1284864641740643
 40
0.1881751303280075
 40
0.2451061306699853
 40
0.2994484245294745
 40
0.3508229360093816
 40
0.3999416805337772
 40
0.4466717436323717
 40
0.4912545333734979
 40
0.5333763442704358
 40
0.5738527549682233
 40
0.6125263117194522
 40
0.6495971364453288
 40
0.6855320415538498
 40
0.7201057860682005
 40
0.7538376629736496
 40
0.8189254160467139
 40
0.8804934616501636
 40
0.9403113338460574
 40
1.0
 40
1.0
 40
1.0
 40
1.0
 10
7.169008148589486
 20
-15.63459244031221
 30
0.0
 10
7.168457959356551
 20
-15.59252486779417
 30
0.0
 10
7.167381671601009
 20
-15.51023170301359
 30
0.0
 10
7.163267683899878
 20
-15.38971352235146
 30
0.0
 10
7.15264410940788
 20
-15.27524576144231
 30
0.0
 10
7.140844990543376
 20
-15.16633528877799
 30
0.0
 10
7.123447769451285
 20
-15.06358498607351
 30
0.0
 10
7.104689962570991
 20
-14.96613468081719
 30
0.0
 10
7.079488750280759
 20
-14.87519165599784
 30
0.0
 10
7.052568975306779
 20
-14.78933207428624
 30
0.0
 10
7.021758579775348
 20
-14.70953141978545
 30
0.0
 10
6.987842845517777
 20
-14.63541763342348
 30
0.0
 10
6.951621086748754
 20
-14.56663290866668
 30
0.0
 10
6.912278846289492
 20
-14.50336596709017
 30
0.0
 10
6.87028316322422
 20
-14.44533342417903
 30
0.0
 10
6.824525614026652
 20
-14.39369882962196
 30
0.0
 10
6.776821241215801
 20
-14.34686186151341
 30
0.0
 10
6.710004055392152
 20
-14.29339929239181
 30
0.0
 10
6.622529765591757
 20
-14.23888759690865
 30
0.0
 10
6.513684118249323
 20
-14.18872183704831
 30
0.0
 10
6.400413473998185
 20
-14.1599135444274
 30
0.0
 10
6.323840019906152
 20
-14.15585185738927
 30
0.0
 10
6.285594687051026
 20
-14.15382320954298
 30
0.0
  0
SPLINE
  5
147
330
1F
100
AcDbEntity
  8
0
  6
Continuous
 62
     7
370
    25
100
AcDbSpline
210
0.0
220
0.0
230
1.0
 70
     8
 71
     3
 72
    19
 73
    15
 74
     0
 42
0.00000001
 43
0.00000001
 40
0.0
 40
0.0
 40
0.0
 40
0.0
 40
0.1128134007444585
 40
0.2253938839207301
 40
0.3395948145627016
 40
0.4596754102248632
 40
0.5217351900879336
 40
0.5839258387389172
 40
0.6481741447653704
 40
0.7138810381130684
 40
0.7810044549073909
 40
0.8514509275565553
 40
0.9240506926641787
 40
1.0
 40
1.0
 40
1.0
 40
1.0
 10
6.285594687051025
 20
-17.11536167108144
 30
0.0
 10
6.324352358706769
 20
-17.11376389026989
 30
0.0
 10
6.401787681891476
 20
-17.11057162746784
 30
0.0
 10
6.514921477035816
 20
-17.07977289009362
 30
0.0
 10
6.624751747118081
 20
-17.03330335062995
 30
0.0
 10
6.710823687396965
 20
-16.97835584521068
 30
0.0
 10
6.776306230898403
 20
-16.9260275157594
 30
0.0
 10
6.82322322100431
 20
-16.88141286744649
 30
0.0
 10
6.866285269437567
 20
-16.83145700014008
 30
0.0
 10
6.907127344292174
 20
-16.77755770422516
 30
0.0
 10
6.944586419967066
 20
-16.71868522005138
 30
0.0
 10
6.978649557662267
 20
-16.65512264478536
 30
0.0
 10
7.009732905207433
 20
-16.58669346687318
 30
0.0
 10
7.02744195115769
 20
-16.53892372775735
 30
0.0
 10
7.036496129358717
 20
-16.51450029287631
 30
0.0
  0
SPLINE
  5
148
330
1F
100
AcDbEntity
  8
0
  6
Continuous
 62
     7
370
    25
100
AcDbSpline
210
0.0
220
0.0
230
1.0
 70
     8
 71
     3
 72
    27
 73
    23
 74
     0
 42
0.00000001
 43
0.00000001
 40
0.0
 40
0.0
 40
0.0
 40
0.0
 40
0.0603866193110623
 40
0.1208832485859962
 40
0.1827546186251398
 40
0.2478110297583516
 40
0.2812991000432493
 40
0.3150876241506578
 40
0.3497023955502756
 40
0.3848565811185564
 40
0.4209661972261032
 40
0.458511188261139
 40
0.4971747221273125
 40
0.5376020478662702
 40
0.580503018420012
 40
0.6274675400267057
 40
0.678388209559244
 40
0.7339832205925607
 40
0.7937467045508354
 40
0.8577136721607334
 40
0.9266978643613865
 40
1.0
 40
1.0
 40
1.0
 40
1.0
 10
6.285594687051025
 20
-14.15382320954298
 30
0.0
 10
6.246884094964219
 20
-14.15585465619023
 30
0.0
 10
6.16939238935911
 20
-14.1599212502942
 30
0.0
 10
6.054944434632349
 20
-14.1886145038858
 30
0.0
 10
5.945240082990056
 20
-14.23862746982341
 30
0.0
 10
5.857997108311197
 20
-14.29357984228833
 30
0.0
 10
5.791133321803604
 20
-14.34591815372998
 30
0.0
 10
5.744050628426851
 20
-14.39130460778845
 30
0.0
 10
5.699904456209153
 20
-14.44095086215358
 30
0.0
 10
5.659236756071504
 20
-14.49535277700394
 30
0.0
 10
5.621147472879246
 20
-14.55381814432306
 30
0.0
 10
5.586166460303539
 20
-14.61680690904832
 30
0.0
 10
5.554649130627491
 20
-14.68463827327372
 30
0.0
 10
5.525564594447324
 20
-14.75725470869279
 30
0.0
 10
5.4999918064211
 20
-14.83683565312832
 30
0.0
 10
5.478897843191114
 20
-14.92460464672179
 30
0.0
 10
5.459410790071219
 20
-15.02106653851098
 30
0.0
 10
5.44561552117066
 20
-15.12678604645616
 30
0.0
 10
5.43335176540895
 20
-15.2410681998254
 30
0.0
 10
5.425470417456691
 20
-15.36434551805473
 30
0.0
 10
5.419339159987461
 20
-15.49640989845709
 30
0.0
 10
5.419120695624705
 20
-15.58760905695973
 30
0.0
 10
5.419008148589485
 20
-15.63459244031221
 30
0.0
  0
SPLINE
  5
149
330
1F
100
AcDbEntity
  8
0
  6
Continuous
 62
     7
370
    25
100
AcDbSpline
210
0.0
220
0.0
230
1.0
 70
     8
 71
     3
 72
    27
 73
    23
 74
     0
 42
0.00000001
 43
0.00000001
 40
0.0
 40
0.0
 40
0.0
 40
0.0
 40
0.0729510658758681
 40
0.1415836941865458
 40
0.2059264601708682
 40
0.2653013571846068
 40
0.3205972327139294
 40
0.3718165030988108
 40
0.4187897697094533
 40
0.4616987286157644
 40
0.5021335821035666
 40
0.5408043152926475
 40
0.5781805253279666
 40
0.614296865207515
 40
0.6496782432647882
 40
0.6842994600896379
 40
0.7183589527723613
 40
0.7520808646475964
 40
0.8176524386023853
 40
0.8797220764054369
 40
0.9399655597309875
 40
1.0
 40
1.0
 40
1.0
 40
1.0
 10
5.419008148589485
 20
-15.63459244031221
 30
0.0
 10
5.419127595657002
 20
-15.68134113911606
 30
0.0
 10
5.419359418960411
 20
-15.77207118391522
 30
0.0
 10
5.425415619537634
 20
-15.90391444489117
 30
0.0
 10
5.433665851537104
 20
-16.02688477370832
 30
0.0
 10
5.444307148722255
 20
-16.14113831017346
 30
0.0
 10
5.460110097248275
 20
-16.24628832268327
 30
0.0
 10
5.477816885065958
 20
-16.3430580057484
 30
0.0
 10
5.499364974685174
 20
-16.4309352428622
 30
0.0
 10
5.524859992552183
 20
-16.51052305356673
 30
0.0
 10
5.553899089445641
 20
-16.58317212206208
 30
0.0
 10
5.585604953115707
 20
-16.65077333718942
 30
0.0
 10
5.619665676020616
 20
-16.71412527362519
 30
0.0
 10
5.657784826573601
 20
-16.77265888199933
 30
0.0
 10
5.699299889802596
 20
-16.82656504607218
 30
0.0
 10
5.743273148940099
 20
-16.87679787839448
 30
0.0
 10
5.791345733182212
 20
-16.92159485973007
 30
0.0
 10
5.857849475725424
 20
-16.97532171475954
 30
0.0
 10
5.945645950152469
 20
-17.03084084848914
 30
0.0
 10
6.056266405383577
 20
-17.07918693832078
 30
0.0
 10
6.169934856365077
 20
-17.10956939475308
 30
0.0
 10
6.247086106452009
 20
-17.11343315070821
 30
0.0
 10
6.285594687051025
 20
-17.11536167108144
 30
0.0
  0
SPLINE
  5
14B
330
1F
100
AcDbEntity
  8
0
  6
Continuous
 62
     7
370
    25
100
AcDbSpline
210
0.0
220
0.0
230
1.0
 70
     8
 71
     3
 72
    19
 73
    15
 74
     0
 42
0.00000001
 43
0.00000001
 40
0.0
 40
0.0
 40
0.0
 40
0.0
 40
0.0962401251801511
 40
0.1852312611287013
 40
0.2675005230774397
 40
0.344400381777777
 40
0.4195948685557306
 40
0.496890626592778
 40
0.5766379188385163
 40
0.6602678524196386
 40
0.7453866150876288
 40
0.8300403273864527
 40
0.9144742116388025
 40
1.0
 40
1.0
 40
1.0
 40
1.0
 10
6.911684429201296
 20
-9.193416032434316
 30
0.0
 10
6.900187804647756
 20
-9.1517531587098
 30
0.0
 10
6.878060503163169
 20
-9.07156553813271
 30
0.0
 10
6.831824138716743
 20
-8.96052464768873
 30
0.0
 10
6.779752598020577
 20
-8.861836746679115
 30
0.0
 10
6.718130866645766
 20
-8.776257113623032
 30
0.0
 10
6.648312141019122
 20
-8.700253600640899
 30
0.0
 10
6.567666958371202
 20
-8.63383501547313
 30
0.0
 10
6.47723106487808
 20
-8.574417564405685
 30
0.0
 10
6.377471924200268
 20
-8.524265064938836
 30
0.0
 10
6.27183013912435
 20
-8.481575206216467
 30
0.0
 10
6.161223947152838
 20
-8.452950090466835
 30
0.0
 10
6.048366159282033
 20
-8.43334054816719
 30
0.0
 10
5.97203187293433
 20
-8.431514439736329
 30
0.0
 10
5.933619525355142
 20
-8.430595519613803
 30
0.0
  0
SPLINE
  5
14C
330
1F
100
AcDbEntity
  8
0
  6
Continuous
 62
     7
370
    25
100
AcDbSpline
210
0.0
220
0.0
230
1.0
 70
     8
 71
     3
 72
    15
 73
    11
 74
     0
 42
0.00000001
 43
0.00000001
 40
0.0
 40
0.0
 40
0.0
 40
0.0
 40
0.1310919762569275
 40
0.2591412763281422
 40
0.384161763483404
 40
0.505991952497776
 40
0.6290980893898568
 40
0.7506691234237095
 40
0.8740389376151276
 40
0.9999999999999999
 40
0.9999999999999999
 40
0.9999999999999999
 40
0.9999999999999999
 10
5.933619525355142
 20
-8.430595519613803
 30
0.0
 10
5.902270086838576
 20
-8.431207191158888
 30
0.0
 10
5.84029883778645
 20
-8.432416337205911
 30
0.0
 10
5.748997769593267
 20
-8.443886466538615
 30
0.0
 10
5.661318070675096
 20
-8.462846311410495
 30
0.0
 10
5.576612783063761
 20
-8.488811268012633
 30
0.0
 10
5.495991914691606
 20
-8.523419870515388
 30
0.0
 10
5.417797146472899
 20
-8.564003097124878
 30
0.0
 10
5.344016750228091
 20
-8.613544680927351
 30
0.0
 10
5.297875454751052
 20
-8.651303535759535
 30
0.0
 10
5.274565038175655
 20
-8.670379173459956
 30
0.0
  0
SPLINE
  5
14D
330
1F
100
AcDbEntity
  8
0
  6
Continuous
 62
     7
370
    25
100
AcDbSpline
210
0.0
220
0.0
230
1.0
 70
     8
 71
     3
 72
    15
 73
    11
 74
     0
 42
0.00000001
 43
0.00000001
 40
0.0
 40
0.0
 40
0.0
 40
0.0
 40
0.1099838451118726
 40
0.2225804973638881
 40
0.3384998709624462
 40
0.4587085654776338
 40
0.585535346457997
 40
0.7175177429458903
 40
0.8546668197510219
 40
0.9999999999999999
 40
0.9999999999999999
 40
0.9999999999999999
 40
0.9999999999999999
 10
5.274565038175655
 20
-8.670379173459956
 30
0.0
 10
5.257871756211287
 20
-8.685473489084412
 30
0.0
 10
5.224088621983842
 20
-8.716020705138199
 30
0.0
 10
5.178948100494548
 20
-8.768649911689227
 30
0.0
 10
5.135727627808359
 20
-8.825401473851263
 30
0.0
 10
5.096393975055708
 20
-8.8884465984494
 30
0.0
 10
5.060316388595965
 20
-8.957067377455996
 30
0.0
 10
5.02655641141501
 20
-9.030685012690805
 30
0.0
 10
4.996169999333395
 20
-9.109858142952413
 30
0.0
 10
4.979073889299916
 20
-9.165030582180696
 30
0.0
 10
4.970278179201296
 20
-9.193416032434316
 30
0.0
  0
SPLINE
  5
14E
330
1F
100
AcDbEntity
  8
0
  6
Continuous
 62
     7
370
    25
100
AcDbSpline
210
0.0
220
0.0
230
1.0
 70
     8
 71
     3
 72
    19
 73
    15
 74
     0
 42
0.00000001
 43
0.00000001
 40
0.0
 40
0.0
 40
0.0
 40
0.0
 40
0.0848023883688275
 40
0.1686635395998411
 40
0.2525519243727822
 40
0.3382396894642447
 40
0.4231026613931552
 40
0.5055560510576224
 40
0.5861756559890516
 40
0.6671357203303602
 40
0.7484991803055333
 40
0.8304523987582787
 40
0.9134557062010125
 40
1.0
 40
1.0
 40
1.0
 40
1.0
 10
0.2243847497141172
 20
-10.44982628884457
 30
0.0
 10
0.2698312524762867
 20
-10.44816632491877
 30
0.0
 10
0.3602198389977376
 20
-10.44486482130879
 30
0.0
 10
0.49365854687775
 20
-10.41958355601557
 30
0.0
 10
0.623153509675615
 20
-10.3778147576655
 30
0.0
 10
0.7469407380539709
 20
-10.31991563093151
 30
0.0
 10
0.8622568692018144
 20
-10.24815827503444
 30
0.0
 10
0.965754746818257
 20
-10.16415118400355
 30
0.0
 10
1.053270715191727
 20
-10.06644799988155
 30
0.0
 10
1.127463324769952
 20
-9.959071546836544
 30
0.0
 10
1.185638741468574
 20
-9.841359550375676
 30
0.0
 10
1.228014800665636
 20
-9.716025359629764
 30
0.0
 10
1.25306870644195
 20
-9.583064611484726
 30
0.0
 10
1.256226436084508
 20
-9.492200684526107
 30
0.0
 10
1.257838275355143
 20
-9.44581987858816
 30
0.0
  0
SPLINE
  5
14F
330
1F
100
AcDbEntity
  8
0
  6
Continuous
 62
     7
370
    25
100
AcDbSpline
210
0.0
220
0.0
230
1.0
 70
     8
 71
     3
 72
    19
 73
    15
 74
     0
 42
0.00000001
 43
0.00000001
 40
0.0
 40
0.0
 40
0.0
 40
0.0
 40
0.0815893489321829
 40
0.1628588951679343
 40
0.2454836892755789
 40
0.3308071391580105
 40
0.4164933737762845
 40
0.4998932031606318
 40
0.5830481559950206
 40
0.6671578520621575
 40
0.751311929292914
 40
0.833784789357615
 40
0.9162564885439798
 40
1.0
 40
1.0
 40
1.0
 40
1.0
 10
-0.8062642887474215
 20
-9.436705295254828
 30
0.0
 10
-0.8043993954376513
 20
-9.480295402438827
 30
0.0
 10
-0.8006769185701414
 20
-9.567304758306332
 30
0.0
 10
-0.7739262241721586
 20
-9.696285335074693
 30
0.0
 10
-0.7290463507386103
 20
-9.821939377136015
 30
0.0
 10
-0.6678042880105651
 20
-9.943200370655703
 30
0.0
 10
-0.5911176632818628
 20
-10.0557844710194
 30
0.0
 10
-0.5022290107296314
 20
-10.15752459358096
 30
0.0
 10
-0.4002787294167626
 20
-10.24501418185377
 30
0.0
 10
-0.287351222342682
 20
-10.31825175545926
 30
0.0
 10
-0.1667432519423332
 20
-10.37741427635469
 30
0.0
 10
-0.0399093204694746
 20
-10.41857991586167
 30
0.0
 10
0.0907663176870182
 20
-10.44515769648184
 30
0.0
 10
0.1796186515389488
 20
-10.44826217331889
 30
0.0
 10
0.2243847497141172
 20
-10.44982628884457
 30
0.0
  0
SPLINE
  5
150
330
1F
100
AcDbEntity
  8
0
  6
Continuous
 62
     7
370
    25
100
AcDbSpline
210
0.0
220
0.0
230
1.0
 70
     8
 71
     3
 72
    19
 73
    15
 74
     0
 42
0.00000001
 43
0.00000001
 40
0.0
 40
0.0
 40
0.0
 40
0.0
 40
0.0859205174117674
 40
0.1695934351247435
 40
0.2524755148685383
 40
0.3362444769570502
 40
0.4195045210415722
 40
0.5020359066440895
 40
0.5847746476768717
 40
0.6698464747058005
 40
0.754184866388786
 40
0.8366582383293272
 40
0.9180097257088053
 40
1.0
 40
1.0
 40
1.0
 40
1.0
 10
0.2271892368936044
 20
-8.430595519613803
 30
0.0
 10
0.1812748990215479
 20
-8.432229157344354
 30
0.0
 10
0.0906472990516516
 20
-8.435453698383204
 30
0.0
 10
-0.0423967030107777
 20
-8.460627193567777
 30
0.0
 10
-0.1697101170988133
 20
-8.502511787931523
 30
0.0
 10
-0.2906561913673817
 20
-8.55979368909989
 30
0.0
 10
-0.4033244079899804
 20
-8.631822425716944
 30
0.0
 10
-0.5040180788193062
 20
-8.718943809008774
 30
0.0
 10
-0.5935607801752425
 20
-8.818780823163424
 30
0.0
 10
-0.6688690444080079
 20
-8.930882933553605
 30
0.0
 10
-0.7302595413276909
 20
-9.051061024622232
 30
0.0
 10
-0.773426573264427
 20
-9.176685462723306
 30
0.0
 10
-0.8018958206735834
 20
-9.305490440279995
 30
0.0
 10
-0.8048043412350551
 20
-9.392853126057739
 30
0.0
 10
-0.8062642887474215
 20
-9.436705295254828
 30
0.0
  0
SPLINE
  5
151
330
1F
100
AcDbEntity
  8
0
  6
Continuous
 62
     7
370
    25
100
AcDbSpline
210
0.0
220
0.0
230
1.0
 70
     8
 71
     3
 72
    23
 73
    19
 74
     0
 42
0.00000001
 43
0.00000001
 40
0.0
 40
0.0
 40
0.0
 40
0.0
 40
0.0656337996756896
 40
0.1291880880571279
 40
0.191218683112188
 40
0.2519128178811574
 40
0.3125074743865504
 40
0.3734944337751975
 40
0.4351515996540495
 40
0.498741474406649
 40
0.5620952169966308
 40
0.6241865668116554
 40
0.6854757184651952
 40
0.7460968148060529
 40
0.8076116364477852
 40
0.8699665806571897
 40
0.9339510189149072
 40
1.0
 40
1.0
 40
1.0
 40
1.0
 10
1.257838275355143
 20
-9.44581987858816
 30
0.0
 10
1.256878618983553
 20
-9.410482048080402
 30
0.0
 10
1.254989711553995
 20
-9.340926014726524
 30
0.0
 10
1.240559142023351
 20
-9.238798497154498
 30
0.0
 10
1.217604215611428
 20
-9.141064771134179
 30
0.0
 10
1.185258045594954
 20
-9.047622082075574
 30
0.0
 10
1.142766761179397
 20
-8.958987066676334
 30
0.0
 10
1.091518995293
 20
-8.87452330646602
 30
0.0
 10
1.03061354555941
 20
-8.794670095076336
 30
0.0
 10
0.9610308494594388
 20
-8.72052702409787
 30
0.0
 10
0.8848656469139705
 20
-8.652900561838642
 30
0.0
 10
0.8042711062818921
 20
-8.592536321126884
 30
0.0
 10
0.718292359324459
 20
-8.542947548387025
 30
0.0
 10
0.6283753224067111
 20
-8.50190627688938
 30
0.0
 10
0.5343639879446568
 20
-8.469247126991778
 30
0.0
 10
0.4354933681261076
 20
-8.447459433223715
 30
0.0
 10
0.332814381199052
 20
-8.43249911218831
 30
0.0
 10
0.2627683258027381
 20
-8.431236731419009
 30
0.0
 10
0.2271892368936044
 20
-8.430595519613803
 30
0.0
  0
SPLINE
  5
152
330
1F
100
AcDbEntity
  8
0
  6
Continuous
 62
     7
370
    25
100
AcDbSpline
210
0.0
220
0.0
230
1.0
 70
     8
 71
     3
 72
    15
 73
    11
 74
     0
 42
0.00000001
 43
0.00000001
 40
0.0
 40
0.0
 40
0.0
 40
0.0
 40
0.1105883385953391
 40
0.2245417540535964
 40
0.3425034940501046
 40
0.4643240984173572
 40
0.5907560327017662
 40
0.7222274753555133
 40
0.8588428362087244
 40
1.0
 40
1.0
 40
1.0
 40
1.0
 10
3.042906385768971
 20
-16.51450029287632
 30
0.0
 10
3.053458153562737
 20
-16.48327055340999
 30
0.0
 10
3.074882767395195
 20
-16.41986078916652
 30
0.0
 10
3.102494541665936
 20
-16.32149713708604
 30
0.0
 10
3.124239940869633
 20
-16.2182943731481
 30
0.0
 10
3.143803306619061
 20
-16.11086925642965
 30
0.0
 10
3.157156362516414
 20
-15.99842955541868
 30
0.0
 10
3.167904175799659
 20
-15.88132317150293
 30
0.0
 10
3.174234862738916
 20
-15.75946180926747
 30
0.0
 10
3.175019613810248
 20
-15.67666681807223
 30
0.0
 10
3.17541840499974
 20
-15.63459244031221
 30
0.0
  0
SPLINE
  5
153
330
1F
100
AcDbEntity
  8
0
  6
Continuous
 62
     7
370
    25
100
AcDbSpline
210
0.0
220
0.0
230
1.0
 70
     8
 71
     3
 72
    27
 73
    23
 74
     0
 42
0.00000001
 43
0.00000001
 40
0.0
 40
0.0
 40
0.0
 40
0.0
 40
0.0729510658758681
 40
0.1415836941865458
 40
0.2059264601708682
 40
0.2653013571846051
 40
0.3205972327139294
 40
0.3718165030988108
 40
0.4187897697094532
 40
0.4616987286157643
 40
0.5021335821035665
 40
0.5408043152926476
 40
0.5781805253279667
 40
0.6142968652075149
 40
0.6496782432647881
 40
0.684299460089638
 40
0.7183589527723613
 40
0.7520808646475966
 40
0.8176524386023853
 40
0.8797220764054369
 40
0.9399655597309875
 40
1.0
 40
1.0
 40
1.0
 40
1.0
 10
1.42541840499974
 20
-15.63459244031221
 30
0.0
 10
1.425537852067256
 20
-15.68134113911606
 30
0.0
 10
1.425769675370665
 20
-15.77207118391522
 30
0.0
 10
1.431825875947886
 20
-15.90391444489117
 30
0.0
 10
1.44007610794736
 20
-16.02688477370832
 30
0.0
 10
1.450717405132508
 20
-16.14113831017346
 30
0.0
 10
1.466520353658529
 20
-16.24628832268327
 30
0.0
 10
1.484227141476212
 20
-16.3430580057484
 30
0.0
 10
1.505775231095429
 20
-16.4309352428622
 30
0.0
 10
1.531270248962436
 20
-16.51052305356673
 30
0.0
 10
1.560309345855894
 20
-16.58317212206209
 30
0.0
 10
1.59201520952596
 20
-16.65077333718942
 30
0.0
 10
1.626075932430872
 20
-16.71412527362521
 30
0.0
 10
1.664195082983853
 20
-16.77265888199932
 30
0.0
 10
1.705710146212851
 20
-16.82656504607219
 30
0.0
 10
1.749683405350352
 20
-16.87679787839448
 30
0.0
 10
1.797755989592467
 20
-16.92159485973008
 30
0.0
 10
1.864259732135678
 20
-16.97532171475955
 30
0.0
 10
1.952056206562725
 20
-17.03084084848915
 30
0.0
 10
2.062676661793831
 20
-17.07918693832077
 30
0.0
 10
2.176345112775332
 20
-17.10956939475309
 30
0.0
 10
2.253496362862264
 20
-17.11343315070822
 30
0.0
 10
2.292004943461279
 20
-17.11536167108144
 30
0.0
  0
SPLINE
  5
154
330
1F
100
AcDbEntity
  8
0
  6
Continuous
 62
     7
370
    25
100
AcDbSpline
210
0.0
220
0.0
230
1.0
 70
     8
 71
     3
 72
    27
 73
    23
 74
     0
 42
0.00000001
 43
0.00000001
 40
0.0
 40
0.0
 40
0.0
 40
0.0
 40
0.0656811979906381
 40
0.1284864641740642
 40
0.1881751303280074
 40
0.2451061306699853
 40
0.2994484245294745
 40
0.3508229360093816
 40
0.3999416805337772
 40
0.4466717436323718
 40
0.4912545333734979
 40
0.5333763442704358
 40
0.5738527549682233
 40
0.612526311719452
 40
0.6495971364453287
 40
0.6855320415538497
 40
0.7201057860682001
 40
0.7538376629736495
 40
0.8189254160467137
 40
0.8804934616501635
 40
0.940311333846057
 40
1.0
 40
1.0
 40
1.0
 40
1.0
 10
3.17541840499974
 20
-15.63459244031221
 30
0.0
 10
3.174868215766804
 20
-15.59252486779417
 30
0.0
 10
3.173791928011265
 20
-15.5102317030136
 30
0.0
 10
3.169677940310133
 20
-15.38971352235147
 30
0.0
 10
3.159054365818136
 20
-15.27524576144232
 30
0.0
 10
3.147255246953631
 20
-15.166335288778
 30
0.0
 10
3.129858025861537
 20
-15.06358498607351
 30
0.0
 10
3.111100218981243
 20
-14.9661346808172
 30
0.0
 10
3.085899006691017
 20
-14.87519165599784
 30
0.0
 10
3.058979231717031
 20
-14.78933207428624
 30
0.0
 10
3.0281688361856
 20
-14.70953141978544
 30
0.0
 10
2.994253101928032
 20
-14.63541763342349
 30
0.0
 10
2.958031343159008
 20
-14.56663290866668
 30
0.0
 10
2.918689102699746
 20
-14.50336596709017
 30
0.0
 10
2.876693419634472
 20
-14.44533342417903
 30
0.0
 10
2.830935870436907
 20
-14.39369882962197
 30
0.0
 10
2.783231497626057
 20
-14.34686186151341
 30
0.0
 10
2.716414311802406
 20
-14.29339929239182
 30
0.0
 10
2.628940022002012
 20
-14.23888759690865
 30
0.0
 10
2.520094374659574
 20
-14.18872183704831
 30
0.0
 10
2.40682373040844
 20
-14.15991354442741
 30
0.0
 10
2.330250276316407
 20
-14.15585185738927
 30
0.0
 10
2.292004943461279
 20
-14.15382320954298
 30
0.0
  0
SPLINE
  5
155
330
1F
100
AcDbEntity
  8
0
  6
Continuous
 62
     7
370
    25
100
AcDbSpline
210
0.0
220
0.0
230
1.0
 70
     8
 71
     3
 72
    27
 73
    23
 74
     0
 42
0.00000001
 43
0.00000001
 40
0.0
 40
0.0
 40
0.0
 40
0.0
 40
0.0603866193110623
 40
0.1208832485859962
 40
0.1827546186251398
 40
0.2478110297583515
 40
0.2812991000432494
 40
0.3150876241506577
 40
0.3497023955502754
 40
0.3848565811185564
 40
0.4209661972261031
 40
0.458511188261139
 40
0.4971747221273125
 40
0.5376020478662703
 40
0.580503018420012
 40
0.6274675400267058
 40
0.6783882095592441
 40
0.7339832205925607
 40
0.7937467045508355
 40
0.8577136721607332
 40
0.9266978643613865
 40
1.0
 40
1.0
 40
1.0
 40
1.0
 10
2.292004943461279
 20
-14.15382320954298
 30
0.0
 10
2.253294351374473
 20
-14.15585465619024
 30
0.0
 10
2.175802645769365
 20
-14.15992125029421
 30
0.0
 10
2.061354691042603
 20
-14.18861450388579
 30
0.0
 10
1.951650339400307
 20
-14.2386274698234
 30
0.0
 10
1.864407364721453
 20
-14.29357984228834
 30
0.0
 10
1.797543578213857
 20
-14.34591815372998
 30
0.0
 10
1.750460884837105
 20
-14.39130460778845
 30
0.0
 10
1.706314712619407
 20
-14.44095086215358
 30
0.0
 10
1.66564701248176
 20
-14.49535277700394
 30
0.0
 10
1.627557729289498
 20
-14.55381814432306
 30
0.0
 10
1.592576716713792
 20
-14.61680690904832
 30
0.0
 10
1.561059387037746
 20
-14.68463827327373
 30
0.0
 10
1.531974850857577
 20
-14.75725470869278
 30
0.0
 10
1.506402062831355
 20
-14.83683565312833
 30
0.0
 10
1.485308099601369
 20
-14.92460464672179
 30
0.0
 10
1.465821046481473
 20
-15.02106653851098
 30
0.0
 10
1.452025777580914
 20
-15.12678604645616
 30
0.0
 10
1.439762021819201
 20
-15.2410681998254
 30
0.0
 10
1.431880673866946
 20
-15.36434551805473
 30
0.0
 10
1.425749416397714
 20
-15.49640989845709
 30
0.0
 10
1.425530952034961
 20
-15.58760905695974
 30
0.0
 10
1.42541840499974
 20
-15.63459244031221
 30
0.0
  0
SPLINE
  5
156
330
1F
100
AcDbEntity
  8
0
  6
Continuous
 62
     7
370
    25
100
AcDbSpline
210
0.0
220
0.0
230
1.0
 70
     8
 71
     3
 72
    19
 73
    15
 74
     0
 42
0.00000001
 43
0.00000001
 40
0.0
 40
0.0
 40
0.0
 40
0.0
 40
0.1128134007444584
 40
0.22539388392073
 40
0.3395948145627015
 40
0.4596754102248635
 40
0.521735190087934
 40
0.5839258387389177
 40
0.6481741447653703
 40
0.7138810381130682
 40
0.7810044549073912
 40
0.8514509275565556
 40
0.9240506926641787
 40
1.0
 40
1.0
 40
1.0
 40
1.0
 10
2.292004943461279
 20
-17.11536167108144
 30
0.0
 10
2.330762615117024
 20
-17.1137638902699
 30
0.0
 10
2.40819793830173
 20
-17.11057162746784
 30
0.0
 10
2.521331733446072
 20
-17.07977289009363
 30
0.0
 10
2.631162003528331
 20
-17.03330335062994
 30
0.0
 10
2.717233943807219
 20
-16.97835584521069
 30
0.0
 10
2.782716487308655
 20
-16.92602751575941
 30
0.0
 10
2.829633477414569
 20
-16.8814128674465
 30
0.0
 10
2.872695525847819
 20
-16.83145700014008
 30
0.0
 10
2.913537600702429
 20
-16.77755770422517
 30
0.0
 10
2.950996676377317
 20
-16.71868522005138
 30
0.0
 10
2.985059814072525
 20
-16.65512264478537
 30
0.0
 10
3.016143161617685
 20
-16.58669346687318
 30
0.0
 10
3.033852207567943
 20
-16.53892372775735
 30
0.0
 10
3.042906385768971
 20
-16.51450029287632
 30
0.0
  0
SPLINE
  5
158
330
1F
100
AcDbEntity
  8
0
  6
Continuous
 62
     7
370
    25
100
AcDbSpline
210
0.0
220
0.0
230
1.0
 70
     8
 71
     3
 72
    15
 73
    11
 74
     0
 42
0.00000001
 43
0.00000001
 40
0.0
 40
0.0
 40
0.0
 40
0.0
 40
0.1099838451118717
 40
0.2225804973638874
 40
0.3384998709624447
 40
0.4587085654776332
 40
0.5855353464579959
 40
0.71751774294589
 40
0.854666819751022
 40
1.0
 40
1.0
 40
1.0
 40
1.0
 10
-8.052358038747425
 20
-8.670379173459956
 30
0.0
 10
-8.069051320711791
 20
-8.685473489084409
 30
0.0
 10
-8.102834454939236
 20
-8.716020705138199
 30
0.0
 10
-8.14797497642853
 20
-8.768649911689229
 30
0.0
 10
-8.191195449114721
 20
-8.82540147385126
 30
0.0
 10
-8.23052910186737
 20
-8.8884465984494
 30
0.0
 10
-8.266606688327112
 20
-8.957067377455997
 30
0.0
 10
-8.300366665508067
 20
-9.030685012690805
 30
0.0
 10
-8.330753077589685
 20
-9.109858142952412
 30
0.0
 10
-8.347849187623165
 20
-9.165030582180696
 30
0.0
 10
-8.356644897721782
 20
-9.193416032434316
 30
0.0
  0
SPLINE
  5
159
330
1F
100
AcDbEntity
  8
0
  6
Continuous
 62
     7
370
    25
100
AcDbSpline
210
0.0
220
0.0
230
1.0
 70
     8
 71
     3
 72
    19
 73
    15
 74
     0
 42
0.00000001
 43
0.00000001
 40
0.0
 40
0.0
 40
0.0
 40
0.0
 40
0.0962401251801511
 40
0.1852312611287013
 40
0.2675005230774397
 40
0.344400381777777
 40
0.4195948685557306
 40
0.496890626592778
 40
0.5766379188385163
 40
0.6602678524196386
 40
0.7453866150876288
 40
0.8300403273864527
 40
0.9144742116388025
 40
1.0
 40
1.0
 40
1.0
 40
1.0
 10
-6.415238647721782
 20
-9.193416032434316
 30
0.0
 10
-6.426735272275324
 20
-9.1517531587098
 30
0.0
 10
-6.448862573759911
 20
-9.07156553813271
 30
0.0
 10
-6.495098938206332
 20
-8.96052464768873
 30
0.0
 10
-6.547170478902501
 20
-8.861836746679115
 30
0.0
 10
-6.608792210277312
 20
-8.776257113623032
 30
0.0
 10
-6.678610935903954
 20
-8.700253600640899
 30
0.0
 10
-6.759256118551876
 20
-8.63383501547313
 30
0.0
 10
-6.849692012044998
 20
-8.574417564405685
 30
0.0
 10
-6.949451152722811
 20
-8.524265064938836
 30
0.0
 10
-7.05509293779873
 20
-8.481575206216467
 30
0.0
 10
-7.165699129770242
 20
-8.452950090466835
 30
0.0
 10
-7.278556917641049
 20
-8.43334054816719
 30
0.0
 10
-7.35489120398875
 20
-8.431514439736329
 30
0.0
 10
-7.393303551567937
 20
-8.430595519613803
 30
0.0
  0
SPLINE
  5
15A
330
1F
100
AcDbEntity
  8
0
  6
Continuous
 62
     7
370
    25
100
AcDbSpline
210
0.0
220
0.0
230
1.0
 70
     8
 71
     3
 72
    15
 73
    11
 74
     0
 42
0.00000001
 43
0.00000001
 40
0.0
 40
0.0
 40
0.0
 40
0.0
 40
0.1310919762569274
 40
0.2591412763281419
 40
0.3841617634834037
 40
0.5059919524977755
 40
0.6290980893898563
 40
0.7506691234237078
 40
0.874038937615127
 40
1.0
 40
1.0
 40
1.0
 40
1.0
 10
-7.393303551567937
 20
-8.430595519613803
 30
0.0
 10
-7.424652990084502
 20
-8.431207191158887
 30
0.0
 10
-7.486624239136625
 20
-8.432416337205911
 30
0.0
 10
-7.577925307329816
 20
-8.443886466538613
 30
0.0
 10
-7.665605006247982
 20
-8.462846311410496
 30
0.0
 10
-7.750310293859321
 20
-8.488811268012633
 30
0.0
 10
-7.830931162231471
 20
-8.523419870515388
 30
0.0
 10
-7.909125930450179
 20
-8.56400309712488
 30
0.0
 10
-7.98290632669499
 20
-8.613544680927351
 30
0.0
 10
-8.029047622172026
 20
-8.651303535759533
 30
0.0
 10
-8.052358038747425
 20
-8.670379173459956
 30
0.0
  0
LINE
  5
15B
330
1F
100
AcDbEntity
  8
0
  6
Continuous
 62
     7
370
    25
100
AcDbLine
 10
-12.2583876862
 20
-10.7190570581
 30
0.0
 11
-12.3039606028
 21
-10.7190570581
 31
0.0
  0
LINE
  5
15C
330
1F
100
AcDbEntity
  8
0
  6
Continuous
 62
     7
370
    25
100
AcDbLine
 10
-11.1940848016
 20
-8.0435762888
 30
0.0
 11
-12.2583876862
 21
-10.7190570581
 31
0.0
  0
LINE
  5
15D
330
1F
100
AcDbEntity
  8
0
  6
Continuous
 62
     7
370
    25
100
AcDbLine
 10
-10.1409998657
 20
-10.7190570581
 30
0.0
 11
-11.1940848016
 21
-8.0435762888
 31
0.0
  0
LINE
  5
15E
330
1F
100
AcDbEntity
  8
0
  6
Continuous
 62
     7
370
    25
100
AcDbLine
 10
-10.0961280708
 20
-10.7190570581
 30
0.0
 11
-10.1409998657
 21
-10.7190570581
 31
0.0
  0
LINE
  5
15F
330
1F
100
AcDbEntity
  8
0
  6
Continuous
 62
     7
370
    25
100
AcDbLine
 10
-9.1524181349
 20
-7.2190570581
 30
0.0
 11
-10.0961280708
 21
-10.7190570581
 31
0.0
  0
LINE
  5
160
330
1F
100
AcDbEntity
  8
0
  6
Continuous
 62
     7
370
    25
100
AcDbLine
 10
-9.473531917
 20
-7.2190570581
 30
0.0
 11
-9.1524181349
 21
-7.2190570581
 31
0.0
  0
LINE
  5
161
330
1F
100
AcDbEntity
  8
0
  6
Continuous
 62
     7
370
    25
100
AcDbLine
 10
-10.1620335195
 20
-9.7683359042
 30
0.0
 11
-9.473531917
 21
-7.2190570581
 31
0.0
  0
LINE
  5
162
330
1F
100
AcDbEntity
  8
0
  6
Continuous
 62
     7
370
    25
100
AcDbLine
 10
-11.1625343208
 20
-7.2190570581
 30
0.0
 11
-10.1620335195
 21
-9.7683359042
 31
0.0
  0
LINE
  5
163
330
1F
100
AcDbEntity
  8
0
  6
Continuous
 62
     7
370
    25
100
AcDbLine
 10
-11.2081072375
 20
-7.2190570581
 30
0.0
 11
-11.1625343208
 21
-7.2190570581
 31
0.0
  0
LINE
  5
164
330
1F
100
AcDbEntity
  8
0
  6
Continuous
 62
     7
370
    25
100
AcDbLine
 10
-12.2261360836
 20
-9.7879673145
 30
0.0
 11
-11.2081072375
 21
-7.2190570581
 31
0.0
  0
LINE
  5
165
330
1F
100
AcDbEntity
  8
0
  6
Continuous
 62
     7
370
    25
100
AcDbLine
 10
-12.911833199
 20
-7.2190570581
 30
0.0
 11
-12.2261360836
 21
-9.7879673145
 31
0.0
  0
LINE
  5
166
330
1F
100
AcDbEntity
  8
0
  6
Continuous
 62
     7
370
    25
100
AcDbLine
 10
-13.2357514682
 20
-7.2190570581
 30
0.0
 11
-12.911833199
 21
-7.2190570581
 31
0.0
  0
LINE
  5
167
330
1F
100
AcDbEntity
  8
0
  6
Continuous
 62
     7
370
    25
100
AcDbLine
 10
-12.3039606028
 20
-10.7190570581
 30
0.0
 11
-13.2357514682
 21
-7.2190570581
 31
0.0
  0
LINE
  5
168
330
1F
100
AcDbEntity
  8
0
  6
Continuous
 62
     7
370
    25
100
AcDbLine
 10
16.8732228907
 20
-10.7190570581
 30
0.0
 11
15.2129664805
 21
-10.7190570581
 31
0.0
  0
LINE
  5
169
330
1F
100
AcDbEntity
  8
0
  6
Continuous
 62
     7
370
    25
100
AcDbLine
 10
16.8732228907
 20
-10.3600826991
 30
0.0
 11
16.8732228907
 21
-10.7190570581
 31
0.0
  0
LINE
  5
16A
330
1F
100
AcDbEntity
  8
0
  6
Continuous
 62
     7
370
    25
100
AcDbLine
 10
15.5270690446
 20
-10.3600826991
 30
0.0
 11
16.8732228907
 21
-10.3600826991
 31
0.0
  0
LINE
  5
16B
330
1F
100
AcDbEntity
  8
0
  6
Continuous
 62
     7
370
    25
100
AcDbLine
 10
15.5270690446
 20
-7.2190570581
 30
0.0
 11
15.5270690446
 21
-10.3600826991
 31
0.0
  0
LINE
  5
16C
330
1F
100
AcDbEntity
  8
0
  6
Continuous
 62
     7
370
    25
100
AcDbLine
 10
15.2129664805
 20
-7.2190570581
 30
0.0
 11
15.5270690446
 21
-7.2190570581
 31
0.0
  0
LINE
  5
16D
330
1F
100
AcDbEntity
  8
0
  6
Continuous
 62
     7
370
    25
100
AcDbLine
 10
15.2129664805
 20
-10.7190570581
 30
0.0
 11
15.2129664805
 21
-7.2190570581
 31
0.0
  0
LINE
  5
16E
330
1F
100
AcDbEntity
  8
0
  6
Continuous
 62
     7
370
    25
100
AcDbLine
 10
-1.8053508258
 20
-14.2435667993
 30
0.0
 11
-2.3438123642
 21
-14.2435667993
 31
0.0
  0
LINE
  5
16F
330
1F
100
AcDbEntity
  8
0
  6
Continuous
 62
     7
370
    25
100
AcDbLine
 10
-1.8053508258
 20
-17.3845924403
 30
0.0
 11
-1.8053508258
 21
-14.2435667993
 31
0.0
  0
LINE
  5
170
330
1F
100
AcDbEntity
  8
0
  6
Continuous
 62
     7
370
    25
100
AcDbLine
 10
-1.4912482617
 20
-17.3845924403
 30
0.0
 11
-1.8053508258
 21
-17.3845924403
 31
0.0
  0
LINE
  5
171
330
1F
100
AcDbEntity
  8
0
  6
Continuous
 62
     7
370
    25
100
AcDbLine
 10
-1.4912482617
 20
-13.8845924403
 30
0.0
 11
-1.4912482617
 21
-17.3845924403
 31
0.0
  0
LINE
  5
172
330
1F
100
AcDbEntity
  8
0
  6
Continuous
 62
     7
370
    25
100
AcDbLine
 10
-2.1383836783
 20
-13.8845924403
 30
0.0
 11
-1.4912482617
 21
-13.8845924403
 31
0.0
  0
LINE
  5
173
330
1F
100
AcDbEntity
  8
0
  6
Continuous
 62
     7
370
    25
100
AcDbLine
 10
-2.3438123642
 20
-14.2435667993
 30
0.0
 11
-2.1383836783
 21
-13.8845924403
 31
0.0
  0
LINE
  5
174
330
1F
100
AcDbEntity
  8
0
  6
Continuous
 62
     7
370
    25
100
AcDbLine
 10
10.4116844292
 20
-9.5523903914
 30
0.0
 11
9.065530583
 21
-9.5523903914
 31
0.0
  0
LINE
  5
175
330
1F
100
AcDbEntity
  8
0
  6
Continuous
 62
     7
370
    25
100
AcDbLine
 10
10.4116844292
 20
-9.1934160324
 30
0.0
 11
10.4116844292
 21
-9.5523903914
 31
0.0
  0
LINE
  5
176
330
1F
100
AcDbEntity
  8
0
  6
Continuous
 62
     7
370
    25
100
AcDbLine
 10
9.065530583
 20
-9.1934160324
 30
0.0
 11
10.4116844292
 21
-9.1934160324
 31
0.0
  0
LINE
  5
177
330
1F
100
AcDbEntity
  8
0
  6
Continuous
 62
     7
370
    25
100
AcDbLine
 10
9.065530583
 20
-9.5523903914
 30
0.0
 11
9.065530583
 21
-9.1934160324
 31
0.0
  0
LINE
  5
178
330
1F
100
AcDbEntity
  8
0
  6
Continuous
 62
     7
370
    25
100
AcDbLine
 10
7.2257869933
 20
-9.5075185965
 30
0.0
 11
4.9373254548
 21
-9.5075185965
 31
0.0
  0
LINE
  5
179
330
1F
100
AcDbEntity
  8
0
  6
Continuous
 62
     7
370
    25
100
AcDbLine
 10
6.8121251343
 20
-9.9113647504
 30
0.0
 11
7.0911716087
 21
-10.0578992055
 31
0.0
  0
LINE
  5
17A
330
1F
100
AcDbEntity
  8
0
  6
Continuous
 62
     7
370
    25
100
AcDbLine
 10
1.2578382754
 20
-10.7190570581
 30
0.0
 11
1.2578382754
 21
-10.2766492055
 31
0.0
  0
LINE
  5
17B
330
1F
100
AcDbEntity
  8
0
  6
Continuous
 62
     7
370
    25
100
AcDbLine
 10
1.5719408395
 20
-10.7190570581
 30
0.0
 11
1.2578382754
 21
-10.7190570581
 31
0.0
  0
LINE
  5
17C
330
1F
100
AcDbEntity
  8
0
  6
Continuous
 62
     7
370
    25
100
AcDbLine
 10
1.5719408395
 20
-8.1613647504
 30
0.0
 11
1.5719408395
 21
-10.7190570581
 31
0.0
  0
LINE
  5
17D
330
1F
100
AcDbEntity
  8
0
  6
Continuous
 62
     7
370
    25
100
AcDbLine
 10
1.2578382754
 20
-8.1613647504
 30
0.0
 11
1.5719408395
 21
-8.1613647504
 31
0.0
  0
LINE
  5
17E
330
1F
100
AcDbEntity
  8
0
  6
Continuous
 62
     7
370
    25
100
AcDbLine
 10
-6.1011360836
 20
-9.5075185965
 30
0.0
 11
-8.3895976221
 21
-9.5075185965
 31
0.0
  0
LINE
  5
17F
330
1F
100
AcDbEntity
  8
0
  6
Continuous
 62
     7
370
    25
100
AcDbLine
 10
-6.5147979426
 20
-9.9113647504
 30
0.0
 11
-6.2357514682
 21
-10.0578992055
 31
0.0
  0
LINE
  5
180
330
1F
100
AcDbEntity
  8
0
  6
Continuous
 62
     7
370
    25
100
AcDbLine
 10
12.2001061068
 20
46.6079609844
 30
0.0
 11
18.2788691454
 21
46.6079609844
 31
0.0
  0
LINE
  5
181
330
1F
100
AcDbEntity
  8
0
  6
Continuous
 62
     7
370
    25
100
AcDbLine
 10
18.2788691454
 20
46.6079609844
 30
0.0
 11
18.2788691454
 21
51.3759573594
 31
0.0
  0
LINE
  5
182
330
1F
100
AcDbEntity
  8
0
  6
Continuous
 62
     7
370
    25
100
AcDbLine
 10
18.2788691454
 20
51.3759573594
 30
0.0
 11
12.2001061068
 21
51.3759573594
 31
0.0
  0
LINE
  5
183
330
1F
100
AcDbEntity
  8
0
  6
Continuous
 62
     7
370
    25
100
AcDbLine
 10
12.2001061068
 20
51.3759573594
 30
0.0
 11
12.2001061068
 21
54.741311078
 31
0.0
  0
LINE
  5
184
330
1F
100
AcDbEntity
  8
0
  6
Continuous
 62
     7
370
    25
100
AcDbLine
 10
12.2001061068
 20
54.741311078
 30
0.0
 11
-11.8998938932
 21
54.741311078
 31
0.0
  0
LINE
  5
185
330
1F
100
AcDbEntity
  8
0
  6
Continuous
 62
     7
370
    25
100
AcDbLine
 10
-11.8998938932
 20
54.741311078
 30
0.0
 11
-11.8998938932
 21
44.041311078
 31
0.0
  0
LINE
  5
186
330
1F
100
AcDbEntity
  8
0
  6
Continuous
 62
     7
370
    25
100
AcDbLine
 10
-11.8998938932
 20
44.041311078
 30
0.0
 11
-16.8498938932
 21
44.041311078
 31
0.0
  0
LINE
  5
187
330
1F
100
AcDbEntity
  8
0
  6
Continuous
 62
     7
370
    25
100
AcDbLine
 10
-16.8498938932
 20
29.041311078
 30
0.0
 11
-11.8998938932
 21
29.041311078
 31
0.0
  0
LINE
  5
188
330
1F
100
AcDbEntity
  8
0
  6
Continuous
 62
     7
370
    25
100
AcDbLine
 10
-11.8998938932
 20
29.041311078
 30
0.0
 11
-11.8998938932
 21
30.391311078
 31
0.0
  0
LINE
  5
189
330
1F
100
AcDbEntity
  8
0
  6
Continuous
 62
     7
370
    25
100
AcDbLine
 10
-11.8998938932
 20
30.391311078
 30
0.0
 11
-3.7998938932
 21
30.391311078
 31
0.0
  0
LINE
  5
18A
330
1F
100
AcDbEntity
  8
0
  6
Continuous
 62
     7
370
    25
100
AcDbLine
 10
-3.7998938932
 20
30.391311078
 30
0.0
 11
-3.7998938932
 21
19.091311078
 31
0.0
  0
LINE
  5
18B
330
1F
100
AcDbEntity
  8
0
  6
Continuous
 62
     7
370
    25
100
AcDbLine
 10
-3.7998938932
 20
19.091311078
 30
0.0
 11
12.2001061068
 21
19.091311078
 31
0.0
  0
LINE
  5
18C
330
1F
100
AcDbEntity
  8
0
  6
Continuous
 62
     7
370
    25
100
AcDbLine
 10
12.2001061068
 20
19.091311078
 30
0.0
 11
12.2001061068
 21
29.041311078
 31
0.0
  0
LINE
  5
18D
330
1F
100
AcDbEntity
  8
0
  6
Continuous
 62
     7
370
    25
100
AcDbLine
 10
12.2001061068
 20
29.041311078
 30
0.0
 11
17.1501061068
 21
29.041311078
 31
0.0
  0
LINE
  5
18E
330
1F
100
AcDbEntity
  8
0
  6
Continuous
 62
     7
370
    25
100
AcDbLine
 10
17.1501061068
 20
29.041311078
 30
0.0
 11
17.1501061068
 21
32.041311078
 31
0.0
  0
LINE
  5
18F
330
1F
100
AcDbEntity
  8
0
  6
Continuous
 62
     7
370
    25
100
AcDbLine
 10
17.1501061068
 20
32.041311078
 30
0.0
 11
17.1640181075
 21
32.041311078
 31
0.0
  0
LINE
  5
190
330
1F
100
AcDbEntity
  8
0
  6
Continuous
 62
     7
370
    25
100
AcDbLine
 10
17.1640181075
 20
32.041311078
 30
0.0
 11
17.1501061068
 21
32.8482071172
 31
0.0
  0
LINE
  5
191
330
1F
100
AcDbEntity
  8
0
  6
Continuous
 62
     7
370
    25
100
AcDbLine
 10
17.1501061068
 20
32.8482071172
 30
0.0
 11
17.1501061068
 21
44.041311078
 31
0.0
  0
LINE
  5
192
330
1F
100
AcDbEntity
  8
0
  6
Continuous
 62
     7
370
    25
100
AcDbLine
 10
17.1501061068
 20
44.041311078
 30
0.0
 11
12.2001061068
 21
44.041311078
 31
0.0
  0
LINE
  5
193
330
1F
100
AcDbEntity
  8
0
  6
Continuous
 62
     7
370
    25
100
AcDbLine
 10
19.5
 20
-59.4
 30
0.0
 11
25.5
 21
-59.4
 31
0.0
  0
LINE
  5
194
330
1F
100
AcDbEntity
  8
0
  6
Continuous
 62
     7
370
    25
100
AcDbLine
 10
25.5
 20
-59.4
 30
0.0
 11
25.5
 21
-31.4
 31
0.0
  0
LINE
  5
195
330
1F
100
AcDbEntity
  8
0
  6
Continuous
 62
     7
370
    25
100
AcDbLine
 10
19.5
 20
-31.4
 30
0.0
 11
19.5
 21
-59.4
 31
0.0
  0
LINE
  5
196
330
1F
100
AcDbEntity
  8
0
  6
Continuous
 62
     7
370
    25
100
AcDbLine
 10
-31.7966555861
 20
35.641311078
 30
0.0
 11
-30.605
 21
35.641311078
 31
0.0
  0
LINE
  5
197
330
1F
100
AcDbEntity
  8
0
  6
Continuous
 62
     7
370
    25
100
AcDbLine
 10
-42.885371512
 20
33.0371146593
 30
0.0
 11
-31.7966555861
 21
35.641311078
 31
0.0
  0
LINE
  5
198
330
1F
100
AcDbEntity
  8
0
  6
Continuous
 62
     7
370
    25
100
AcDbLine
 10
-28.0126191012
 20
51.1814762891
 30
0.0
 11
-45.8737986122
 21
40.351535952
 31
0.0
  0
LINE
  5
199
330
1F
100
AcDbEntity
  8
0
  6
Continuous
 62
     7
370
    25
100
AcDbLine
 10
-25.605
 20
55.4569366474
 30
0.0
 11
-25.605
 21
67.0
 31
0.0
  0
LINE
  5
19A
330
1F
100
AcDbEntity
  8
0
  6
Continuous
 62
     7
370
    25
100
AcDbLine
 10
-30.605
 20
72.0
 30
0.0
 11
-70.0
 21
72.0
 31
0.0
  0
LINE
  5
19B
330
1F
100
AcDbEntity
  8
0
  6
Continuous
 62
     7
370
    25
100
AcDbLine
 10
-70.0
 20
72.0
 30
0.0
 11
-70.0
 21
77.0
 31
0.0
  0
LINE
  5
19C
330
1F
100
AcDbEntity
  8
0
  6
Continuous
 62
     7
370
    25
100
AcDbLine
 10
70.0
 20
72.0
 30
0.0
 11
70.0
 21
77.0
 31
0.0
  0
LINE
  5
19D
330
1F
100
AcDbEntity
  8
0
  6
Continuous
 62
     7
370
    25
100
AcDbLine
 10
70.0
 20
72.0
 30
0.0
 11
30.605
 21
72.0
 31
0.0
  0
LINE
  5
19E
330
1F
100
AcDbEntity
  8
0
  6
Continuous
 62
     7
370
    25
100
AcDbLine
 10
28.0126191012
 20
51.1814762891
 30
0.0
 11
45.8737986122
 21
40.351535952
 31
0.0
  0
LINE
  5
19F
330
1F
100
AcDbEntity
  8
0
  6
Continuous
 62
     7
370
    25
100
AcDbLine
 10
42.885371512
 20
33.0371146593
 30
0.0
 11
31.7966555861
 21
35.641311078
 31
0.0
  0
LINE
  5
1A0
330
1F
100
AcDbEntity
  8
0
  6
Continuous
 62
     7
370
    25
100
AcDbLine
 10
31.7966555861
 20
35.641311078
 30
0.0
 11
30.605
 21
35.641311078
 31
0.0
  0
LINE
  5
1A1
330
1F
100
AcDbEntity
  8
0
  6
Continuous
 62
     7
370
    25
100
AcDbLine
 10
25.605
 20
30.641311078
 30
0.0
 11
25.605
 21
13.363748785
 31
0.0
  0
LINE
  5
1A2
330
1F
100
AcDbEntity
  8
0
  6
Continuous
 62
     7
370
    25
100
AcDbLine
 10
26.2974139436
 20
10.8251069499
 30
0.0
 11
47.3075860564
 21
-24.8251069499
 31
0.0
  0
LINE
  5
1A3
330
1F
100
AcDbEntity
  8
0
  6
Continuous
 62
     7
370
    25
100
AcDbLine
 10
48.0
 20
-96.0
 30
0.0
 11
48.0
 21
-27.363748785
 31
0.0
  0
LINE
  5
1A4
330
1F
100
AcDbEntity
  8
0
  6
Continuous
 62
     7
370
    25
100
AcDbLine
 10
-48.0
 20
-96.0
 30
0.0
 11
48.0
 21
-96.0
 31
0.0
  0
LINE
  5
1A5
330
1F
100
AcDbEntity
  8
0
  6
Continuous
 62
     7
370
    25
100
AcDbLine
 10
-48.0
 20
-27.363748785
 30
0.0
 11
-48.0
 21
-96.0
 31
0.0
  0
LINE
  5
1A6
330
1F
100
AcDbEntity
  8
0
  6
Continuous
 62
     7
370
    25
100
AcDbLine
 10
-47.3075860564
 20
-24.8251069499
 30
0.0
 11
-26.2974139436
 21
10.8251069499
 31
0.0
  0
LINE
  5
1A7
330
1F
100
AcDbEntity
  8
0
  6
Continuous
 62
     7
370
    25
100
AcDbLine
 10
43.0
 20
-58.0
 30
0.0
 11
43.5
 21
-58.0
 31
0.0
  0
LINE
  5
1A8
330
1F
100
AcDbEntity
  8
0
  6
Continuous
 62
     7
370
    25
100
AcDbLine
 10
43.5
 20
-58.0
 30
0.0
 11
43.5
 21
-31.4
 31
0.0
  0
LINE
  5
1A9
330
1F
100
AcDbEntity
  8
0
  6
Continuous
 62
     7
370
    25
100
AcDbLine
 10
43.5
 20
-31.4
 30
0.0
 11
34.5
 21
-31.4
 31
0.0
  0
LINE
  5
1AA
330
1F
100
AcDbEntity
  8
0
  6
Continuous
 62
     7
370
    25
100
AcDbLine
 10
34.5
 20
-31.4
 30
0.0
 11
34.5
 21
-80.0
 31
0.0
  0
LINE
  5
1AB
330
1F
100
AcDbEntity
  8
0
  6
Continuous
 62
     7
370
    25
100
AcDbLine
 10
34.5
 20
-80.0
 30
0.0
 11
43.0
 21
-80.0
 31
0.0
  0
LINE
  5
1AC
330
1F
100
AcDbEntity
  8
0
  6
Continuous
 62
     7
370
    25
100
AcDbLine
 10
43.0
 20
-80.0
 30
0.0
 11
43.0
 21
-58.0
 31
0.0
  0
LINE
  5
1AD
330
1F
100
AcDbEntity
  8
0
  6
Continuous
 62
     7
370
    25
100
AcDbLine
 10
-4.9120335195
 20
-8.1950185965
 30
0.0
 11
-5.2464686157
 21
-10.7190570581
 31
0.0
  0
LINE
  5
1AE
330
1F
100
AcDbEntity
  8
0
  6
Continuous
 62
     7
370
    25
100
AcDbLine
 10
-3.6437041926
 20
-10.7190570581
 30
0.0
 11
-4.9120335195
 21
-8.1950185965
 31
0.0
  0
LINE
  5
1AF
330
1F
100
AcDbEntity
  8
0
  6
Continuous
 62
     7
370
    25
100
AcDbLine
 10
-3.5721897695
 20
-10.7190570581
 30
0.0
 11
-3.6437041926
 21
-10.7190570581
 31
0.0
  0
LINE
  5
1B0
330
1F
100
AcDbEntity
  8
0
  6
Continuous
 62
     7
370
    25
100
AcDbLine
 10
-2.309469417
 20
-8.2027309363
 30
0.0
 11
-3.5721897695
 21
-10.7190570581
 31
0.0
  0
LINE
  5
1B1
330
1F
100
AcDbEntity
  8
0
  6
Continuous
 62
     7
370
    25
100
AcDbLine
 10
-1.9729309554
 20
-10.7190570581
 30
0.0
 11
-2.309469417
 21
-8.2027309363
 31
0.0
  0
LINE
  5
1B2
330
1F
100
AcDbEntity
  8
0
  6
Continuous
 62
     7
370
    25
100
AcDbLine
 10
-1.6588283913
 20
-10.7190570581
 30
0.0
 11
-1.9729309554
 21
-10.7190570581
 31
0.0
  0
LINE
  5
1B3
330
1F
100
AcDbEntity
  8
0
  6
Continuous
 62
     7
370
    25
100
AcDbLine
 10
-2.1250743849
 20
-7.2190570581
 30
0.0
 11
-1.6588283913
 21
-10.7190570581
 31
0.0
  0
LINE
  5
1B4
330
1F
100
AcDbEntity
  8
0
  6
Continuous
 62
     7
370
    25
100
AcDbLine
 10
-2.1699461798
 20
-7.2190570581
 30
0.0
 11
-2.1250743849
 21
-7.2190570581
 31
0.0
  0
LINE
  5
1B5
330
1F
100
AcDbEntity
  8
0
  6
Continuous
 62
     7
370
    25
100
AcDbLine
 10
-3.6107514682
 20
-10.0908519299
 30
0.0
 11
-2.1699461798
 21
-7.2190570581
 31
0.0
  0
LINE
  5
1B6
330
1F
100
AcDbEntity
  8
0
  6
Continuous
 62
     7
370
    25
100
AcDbLine
 10
-5.0557634875
 20
-7.2190570581
 30
0.0
 11
-3.6107514682
 21
-10.0908519299
 31
0.0
  0
LINE
  5
1B7
330
1F
100
AcDbEntity
  8
0
  6
Continuous
 62
     7
370
    25
100
AcDbLine
 10
-5.1006352823
 20
-7.2190570581
 30
0.0
 11
-5.0557634875
 21
-7.2190570581
 31
0.0
  0
LINE
  5
1B8
330
1F
100
AcDbEntity
  8
0
  6
Continuous
 62
     7
370
    25
100
AcDbLine
 10
-5.5626745452
 20
-10.7190570581
 30
0.0
 11
-5.1006352823
 21
-7.2190570581
 31
0.0
  0
LINE
  5
1B9
330
1F
100
AcDbEntity
  8
0
  6
Continuous
 62
     7
370
    25
100
AcDbLine
 10
-5.2464686157
 20
-10.7190570581
 30
0.0
 11
-5.5626745452
 21
-10.7190570581
 31
0.0
  0
LINE
  5
1BA
330
1F
100
AcDbEntity
  8
0
  6
Continuous
 62
     7
370
    25
100
AcDbLine
 10
2.6039921215
 20
-10.7190570581
 30
0.0
 11
2.2898895574
 21
-10.7190570581
 31
0.0
  0
LINE
  5
1BB
330
1F
100
AcDbEntity
  8
0
  6
Continuous
 62
     7
370
    25
100
AcDbLine
 10
2.6039921215
 20
-9.5404713209
 30
0.0
 11
2.6039921215
 21
-10.7190570581
 31
0.0
  0
LINE
  5
1BC
330
1F
100
AcDbEntity
  8
0
  6
Continuous
 62
     7
370
    25
100
AcDbLine
 10
3.9031708074
 20
-10.7190570581
 30
0.0
 11
2.6039921215
 21
-9.5404713209
 31
0.0
  0
LINE
  5
1BD
330
1F
100
AcDbEntity
  8
0
  6
Continuous
 62
     7
370
    25
100
AcDbLine
 10
4.3539921215
 20
-10.7190570581
 30
0.0
 11
3.9031708074
 21
-10.7190570581
 31
0.0
  0
LINE
  5
1BE
330
1F
100
AcDbEntity
  8
0
  6
Continuous
 62
     7
370
    25
100
AcDbLine
 10
2.86901616
 20
-9.3729032119
 30
0.0
 11
4.3539921215
 21
-10.7190570581
 31
0.0
  0
LINE
  5
1BF
330
1F
100
AcDbEntity
  8
0
  6
Continuous
 62
     7
370
    25
100
AcDbLine
 10
4.2193767369
 20
-8.1613647504
 30
0.0
 11
2.86901616
 21
-9.3729032119
 31
0.0
  0
LINE
  5
1C0
330
1F
100
AcDbEntity
  8
0
  6
Continuous
 62
     7
370
    25
100
AcDbLine
 10
3.7685554228
 20
-8.1613647504
 30
0.0
 11
4.2193767369
 21
-8.1613647504
 31
0.0
  0
LINE
  5
1C1
330
1F
100
AcDbEntity
  8
0
  6
Continuous
 62
     7
370
    25
100
AcDbLine
 10
2.6039921215
 20
-9.2046339812
 30
0.0
 11
3.7685554228
 21
-8.1613647504
 31
0.0
  0
LINE
  5
1C2
330
1F
100
AcDbEntity
  8
0
  6
Continuous
 62
     7
370
    25
100
AcDbLine
 10
2.6039921215
 20
-7.1293134683
 30
0.0
 11
2.6039921215
 21
-9.2046339812
 31
0.0
  0
LINE
  5
1C3
330
1F
100
AcDbEntity
  8
0
  6
Continuous
 62
     7
370
    25
100
AcDbLine
 10
2.2898895574
 20
-7.1293134683
 30
0.0
 11
2.6039921215
 21
-7.1293134683
 31
0.0
  0
LINE
  5
1C4
330
1F
100
AcDbEntity
  8
0
  6
Continuous
 62
     7
370
    25
100
AcDbLine
 10
2.2898895574
 20
-10.7190570581
 30
0.0
 11
2.2898895574
 21
-7.1293134683
 31
0.0
  0
LINE
  5
1C5
330
1F
100
AcDbEntity
  8
0
  6
Continuous
 62
     7
370
    25
100
AcDbLine
 10
8.0783510959
 20
-10.7190570581
 30
0.0
 11
7.7642485318
 21
-10.7190570581
 31
0.0
  0
LINE
  5
1C6
330
1F
100
AcDbEntity
  8
0
  6
Continuous
 62
     7
370
    25
100
AcDbLine
 10
8.0783510959
 20
-9.8594817376
 30
0.0
 11
8.0783510959
 21
-10.7190570581
 31
0.0
  0
LINE
  5
1C7
330
1F
100
AcDbEntity
  8
0
  6
Continuous
 62
     7
370
    25
100
AcDbLine
 10
8.9757869933
 20
-8.2041331799
 30
0.0
 11
8.8033110318
 21
-8.4761684363
 31
0.0
  0
LINE
  5
1C8
330
1F
100
AcDbEntity
  8
0
  6
Continuous
 62
     7
370
    25
100
AcDbLine
 10
8.0783510959
 20
-8.1613647504
 30
0.0
 11
8.0783510959
 21
-8.5378671542
 31
0.0
  0
LINE
  5
1C9
330
1F
100
AcDbEntity
  8
0
  6
Continuous
 62
     7
370
    25
100
AcDbLine
 10
7.7642485318
 20
-8.1613647504
 30
0.0
 11
8.0783510959
 21
-8.1613647504
 31
0.0
  0
LINE
  5
1CA
330
1F
100
AcDbEntity
  8
0
  6
Continuous
 62
     7
370
    25
100
AcDbLine
 10
7.7642485318
 20
-10.7190570581
 30
0.0
 11
7.7642485318
 21
-8.1613647504
 31
0.0
  0
LINE
  5
1CB
330
1F
100
AcDbEntity
  8
0
  6
Continuous
 62
     7
370
    25
100
AcDbLine
 10
12.6552741728
 20
-10.7190570581
 30
0.0
 11
10.9950177625
 21
-10.7190570581
 31
0.0
  0
LINE
  5
1CC
330
1F
100
AcDbEntity
  8
0
  6
Continuous
 62
     7
370
    25
100
AcDbLine
 10
12.6552741728
 20
-10.3600826991
 30
0.0
 11
12.6552741728
 21
-10.7190570581
 31
0.0
  0
LINE
  5
1CD
330
1F
100
AcDbEntity
  8
0
  6
Continuous
 62
     7
370
    25
100
AcDbLine
 10
11.3091203266
 20
-10.3600826991
 30
0.0
 11
12.6552741728
 21
-10.3600826991
 31
0.0
  0
LINE
  5
1CE
330
1F
100
AcDbEntity
  8
0
  6
Continuous
 62
     7
370
    25
100
AcDbLine
 10
11.3091203266
 20
-7.2190570581
 30
0.0
 11
11.3091203266
 21
-10.3600826991
 31
0.0
  0
LINE
  5
1CF
330
1F
100
AcDbEntity
  8
0
  6
Continuous
 62
     7
370
    25
100
AcDbLine
 10
10.9950177625
 20
-7.2190570581
 30
0.0
 11
11.3091203266
 21
-7.2190570581
 31
0.0
  0
LINE
  5
1D0
330
1F
100
AcDbEntity
  8
0
  6
Continuous
 62
     7
370
    25
100
AcDbLine
 10
10.9950177625
 20
-10.7190570581
 30
0.0
 11
10.9950177625
 21
-7.2190570581
 31
0.0
  0
LINE
  5
1D1
330
1F
100
AcDbEntity
  8
0
  6
Continuous
 62
     7
370
    25
100
AcDbLine
 10
-4.6771456976
 20
-17.3845924403
 30
0.0
 11
-4.7220174924
 21
-17.3845924403
 31
0.0
  0
LINE
  5
1D2
330
1F
100
AcDbEntity
  8
0
  6
Continuous
 62
     7
370
    25
100
AcDbLine
 10
-3.1963764668
 20
-13.8845924403
 30
0.0
 11
-4.6771456976
 21
-17.3845924403
 31
0.0
  0
LINE
  5
1D3
330
1F
100
AcDbEntity
  8
0
  6
Continuous
 62
     7
370
    25
100
AcDbLine
 10
-3.5336160501
 20
-13.8845924403
 30
0.0
 11
-3.1963764668
 21
-13.8845924403
 31
0.0
  0
LINE
  5
1D4
330
1F
100
AcDbEntity
  8
0
  6
Continuous
 62
     7
370
    25
100
AcDbLine
 10
-4.7002827168
 20
-16.640702216
 30
0.0
 11
-3.5336160501
 21
-13.8845924403
 31
0.0
  0
LINE
  5
1D5
330
1F
100
AcDbEntity
  8
0
  6
Continuous
 62
     7
370
    25
100
AcDbLine
 10
-5.8662482617
 20
-13.8845924403
 30
0.0
 11
-4.7002827168
 21
-16.640702216
 31
0.0
  0
LINE
  5
1D6
330
1F
100
AcDbEntity
  8
0
  6
Continuous
 62
     7
370
    25
100
AcDbLine
 10
-6.2027867232
 20
-13.8845924403
 30
0.0
 11
-5.8662482617
 21
-13.8845924403
 31
0.0
  0
LINE
  5
1D7
330
1F
100
AcDbEntity
  8
0
  6
Continuous
 62
     7
370
    25
100
AcDbLine
 10
-4.7220174924
 20
-17.3845924403
 30
0.0
 11
-6.2027867232
 21
-13.8845924403
 31
0.0
  0
LINE
  5
1D8
330
1F
100
AcDbEntity
  8
0
  6
Continuous
 62
     7
370
    25
100
AcDbLine
 10
13.5975818651
 20
-10.7190570581
 30
0.0
 11
13.5975818651
 21
-7.578031417
 31
0.0
  0
LINE
  5
1D9
330
1F
100
AcDbEntity
  8
0
  6
Continuous
 62
     7
370
    25
100
AcDbLine
 10
13.9116844292
 20
-10.7190570581
 30
0.0
 11
13.5975818651
 21
-10.7190570581
 31
0.0
  0
LINE
  5
1DA
330
1F
100
AcDbEntity
  8
0
  6
Continuous
 62
     7
370
    25
100
AcDbLine
 10
13.9116844292
 20
-7.578031417
 30
0.0
 11
13.9116844292
 21
-10.7190570581
 31
0.0
  0
LINE
  5
1DB
330
1F
100
AcDbEntity
  8
0
  6
Continuous
 62
     7
370
    25
100
AcDbLine
 10
14.674504942
 20
-7.578031417
 30
0.0
 11
13.9116844292
 21
-7.578031417
 31
0.0
  0
LINE
  5
1DC
330
1F
100
AcDbEntity
  8
0
  6
Continuous
 62
     7
370
    25
100
AcDbLine
 10
14.674504942
 20
-7.2190570581
 30
0.0
 11
14.674504942
 21
-7.578031417
 31
0.0
  0
LINE
  5
1DD
330
1F
100
AcDbEntity
  8
0
  6
Continuous
 62
     7
370
    25
100
AcDbLine
 10
12.8347613523
 20
-7.2190570581
 30
0.0
 11
14.674504942
 21
-7.2190570581
 31
0.0
  0
LINE
  5
1DE
330
1F
100
AcDbEntity
  8
0
  6
Continuous
 62
     7
370
    25
100
AcDbLine
 10
12.8347613523
 20
-7.578031417
 30
0.0
 11
12.8347613523
 21
-7.2190570581
 31
0.0
  0
LINE
  5
1DF
330
1F
100
AcDbEntity
  8
0
  6
Continuous
 62
     7
370
    25
100
AcDbLine
 10
13.5975818651
 20
-7.578031417
 30
0.0
 11
12.8347613523
 21
-7.578031417
 31
0.0
  0
LINE
  5
1E0
330
1F
100
AcDbEntity
  8
0
  6
Continuous
 62
     7
370
    25
100
AcDbLine
 10
12.2001061068
 20
44.041311078
 30
0.0
 11
12.2001061068
 21
46.6079609844
 31
0.0
  0
LINE
  5
1E1
330
1F
100
AcDbEntity
  8
0
  6
Continuous
 62
     7
370
    25
100
AcDbLine
 10
25.605
 20
67.0
 30
0.0
 11
25.605
 21
55.4569366474
 31
0.0
  0
LINE
  5
1E2
330
1F
100
AcDbEntity
  8
0
  6
Continuous
 62
     7
370
    25
100
AcDbLine
 10
25.5
 20
-31.4
 30
0.0
 11
19.5
 21
-31.4
 31
0.0
  0
LINE
  5
1E3
330
1F
100
AcDbEntity
  8
0
  6
Continuous
 62
     7
370
    25
100
AcDbLine
 10
-25.605
 20
13.363748785
 30
0.0
 11
-25.605
 21
30.641311078
 31
0.0
  0
LINE
  5
1E4
330
1F
100
AcDbEntity
  8
0
  6
Continuous
 62
     7
370
    25
100
AcDbLine
 10
-16.8498938932
 20
44.041311078
 30
0.0
 11
-16.8498938932
 21
29.041311078
 31
0.0
  0
LINE
  5
1E5
330
1F
100
AcDbEntity
  8
0
  6
Continuous
 62
     7
370
    25
100
AcDbLine
 10
62.0
 20
85.0
 30
0.0
 11
-62.0
 21
85.0
 31
0.0
  0
LINE
  5
1E6
330
1F
100
AcDbEntity
  8
0
  6
Continuous
 62
     7
370
    25
100
AcDbLine
 10
1.2578382754
 20
-8.6346219619
 30
0.0
 11
1.2578382754
 21
-8.1613647504
 31
0.0
  0
LINE
  5
1E7
330
1F
100
AcDbEntity
  8
0
  6
Continuous
 62
     7
370
    25
100
AcDbLine
 10
5.25
 20
76.25
 30
0.0
 11
8.25
 21
76.25
 31
0.0
  0
LINE
  5
1E8
330
1F
100
AcDbEntity
  8
0
  6
Continuous
 62
     7
370
    25
100
AcDbLine
 10
8.25
 20
76.25
 30
0.0
 11
8.25
 21
66.25
 31
0.0
  0
LINE
  5
1E9
330
1F
100
AcDbEntity
  8
0
  6
Continuous
 62
     7
370
    25
100
AcDbLine
 10
8.25
 20
66.25
 30
0.0
 11
5.25
 21
66.25
 31
0.0
  0
LINE
  5
1EA
330
1F
100
AcDbEntity
  8
0
  6
Continuous
 62
     7
370
    25
100
AcDbLine
 10
5.25
 20
66.25
 30
0.0
 11
5.25
 21
76.25
 31
0.0
  0
LINE
  5
1EB
330
1F
100
AcDbEntity
  8
0
  6
Continuous
 62
     7
370
    25
100
AcDbLine
 10
4.9702781792
 20
-9.1934160324
 30
0.0
 11
6.9116844292
 21
-9.1934160324
 31
0.0
  0
LINE
  5
1EC
330
1F
100
AcDbEntity
  8
0
  6
Continuous
 62
     7
370
    25
100
AcDbLine
 10
-8.3566448977
 20
-9.1934160324
 30
0.0
 11
-6.4152386477
 21
-9.1934160324
 31
0.0
  0
ARC
  5
1ED
330
1F
100
AcDbEntity
  8
0
  6
Continuous
 62
     7
370
    25
100
AcDbCircle
 10
-30.605
 20
13.363748785
 30
0.0
 40
5.000000000000108
100
AcDbArc
 50
329.487364474
 51
0.0
  0
ARC
  5
1EE
330
1F
100
AcDbEntity
  8
0
  6
Continuous
 62
     7
370
    25
100
AcDbCircle
 10
-30.605
 20
30.641311078
 30
0.0
 40
5.000000000000004
100
AcDbArc
 50
0.0
 51
90.0
  0
ARC
  5
1EF
330
1F
100
AcDbEntity
  8
0
  6
Continuous
 62
     7
370
    25
100
AcDbCircle
 10
-43.7998938932
 20
36.9311676654
 30
0.0
 40
3.999999999999909
100
AcDbArc
 50
121.2300920476
 51
283.2164625719
  0
ARC
  5
1F0
330
1F
100
AcDbEntity
  8
0
  6
Continuous
 62
     7
370
    25
100
AcDbCircle
 10
-30.605
 20
55.4569366474
 30
0.0
 40
4.999999999999964
100
AcDbArc
 50
301.2300920476
 51
0.0
  0
ARC
  5
1F1
330
1F
100
AcDbEntity
  8
0
  6
Continuous
 62
     7
370
    25
100
AcDbCircle
 10
-30.605
 20
67.0
 30
0.0
 40
5.000000000000028
100
AcDbArc
 50
0.0
 51
90.0
  0
ARC
  5
1F2
330
1F
100
AcDbEntity
  8
0
  6
Continuous
 62
     7
370
    25
100
AcDbCircle
 10
-62.0
 20
77.0
 30
0.0
 40
8.0
100
AcDbArc
 50
90.0
 51
180.0
  0
ARC
  5
1F3
330
1F
100
AcDbEntity
  8
0
  6
Continuous
 62
     7
370
    25
100
AcDbCircle
 10
62.0
 20
77.0
 30
0.0
 40
7.999999999999957
100
AcDbArc
 50
0.0
 51
90.0
  0
ARC
  5
1F4
330
1F
100
AcDbEntity
  8
0
  6
Continuous
 62
     7
370
    25
100
AcDbCircle
 10
30.605
 20
67.0
 30
0.0
 40
5.000000000000043
100
AcDbArc
 50
90.0
 51
180.0
  0
ARC
  5
1F5
330
1F
100
AcDbEntity
  8
0
  6
Continuous
 62
     7
370
    25
100
AcDbCircle
 10
30.605
 20
55.4569366474
 30
0.0
 40
4.999999999999964
100
AcDbArc
 50
180.0
 51
238.7699079524
  0
ARC
  5
1F6
330
1F
100
AcDbEntity
  8
0
  6
Continuous
 62
     7
370
    25
100
AcDbCircle
 10
43.7998938932
 20
36.9311676654
 30
0.0
 40
3.999999999999911
100
AcDbArc
 50
256.7835374281
 51
58.7699079524
  0
ARC
  5
1F7
330
1F
100
AcDbEntity
  8
0
  6
Continuous
 62
     7
370
    25
100
AcDbCircle
 10
30.605
 20
30.641311078
 30
0.0
 40
5.000000000000011
100
AcDbArc
 50
90.0
 51
180.0
  0
ARC
  5
1F8
330
1F
100
AcDbEntity
  8
0
  6
Continuous
 62
     7
370
    25
100
AcDbCircle
 10
30.605
 20
13.363748785
 30
0.0
 40
4.999999999999899
100
AcDbArc
 50
180.0
 51
210.512635526
  0
ARC
  5
1F9
330
1F
100
AcDbEntity
  8
0
  6
Continuous
 62
     7
370
    25
100
AcDbCircle
 10
43.0
 20
-27.363748785
 30
0.0
 40
4.99999999999784
100
AcDbArc
 50
360.0
 51
30.512635526
  0
ARC
  5
1FA
330
1F
100
AcDbEntity
  8
0
  6
Continuous
 62
     7
370
    25
100
AcDbCircle
 10
-43.0
 20
-27.363748785
 30
0.0
 40
4.999999999999886
100
AcDbArc
 50
149.487364474
 51
180.0
  0
MTEXT
  5
1FC
330
1F
100
AcDbEntity
  8
0
  6
Continuous
 62
     7
100
AcDbMText
 10
-70.0
 20
-97.0195663917
 30
0.0
 40
4.83362
 41
0.0
 71
     1
 72
     1
  1
SOLIDWORKS Educational Product.
  7
SLDTEXTSTYLE0
 73
     1
 44
1.0
  0
MTEXT
  5
1FD
330
1F
100
AcDbEntity
  8
0
  6
Continuous
 62
     7
100
AcDbMText
 10
-70.0
 20
-104.2699963917
 30
0.0
 40
4.83362
 41
0.0
 71
     1
 72
     1
  1
For Instructional Use Only.
  7
SLDTEXTSTYLE0
 73
     1
 44
1.0
  0
ENDSEC
  0
SECTION
  2
OBJECTS
  0
DICTIONARY
  5
C
330
0
100
AcDbDictionary
281
     1
  3
ACAD_GROUP
350
D
  3
ACAD_LAYOUT
350
1A
  3
ACAD_MLINESTYLE
350
17
  3
ACAD_PLOTSETTINGS
350
19
  3
ACAD_PLOTSTYLENAME
350
E
  3
ACAD_SCALELIST
350
47
  3
DWGPROPS
350
1FE
  0
DICTIONARY
  5
D
102
{ACAD_REACTORS
330
C
102
}
330
C
100
AcDbDictionary
281
     1
  0
DICTIONARY
  5
1A
102
{ACAD_REACTORS
330
C
102
}
330
C
100
AcDbDictionary
281
     1
  3
Layout1
350
1E
  3
Layout2
350
26
  3
Model
350
22
  0
DICTIONARY
  5
17
102
{ACAD_REACTORS
330
C
102
}
330
C
100
AcDbDictionary
281
     1
  3
Standard
350
18
  0
DICTIONARY
  5
19
102
{ACAD_REACTORS
330
C
102
}
330
C
100
AcDbDictionary
281
     1
  0
ACDBDICTIONARYWDFLT
  5
E
102
{ACAD_REACTORS
330
C
102
}
330
C
100
AcDbDictionary
281
     1
  3
Normal
350
F
100
AcDbDictionaryWithDefault
340
F
  0
DICTIONARY
  5
47
102
{ACAD_REACTORS
330
C
102
}
330
C
100
AcDbDictionary
281
     1
  3
A0
350
48
  3
A1
350
49
  3
A2
350
4A
  3
A3
350
4B
  3
A4
350
4C
  3
A5
350
4D
  3
A6
350
4E
  3
A7
350
4F
  3
A8
350
50
  3
A9
350
51
  3
B0
350
52
  3
B1
350
53
  3
B2
350
54
  3
B3
350
55
  3
B4
350
56
  3
B5
350
57
  3
B6
350
58
  0
XRECORD
  5
1FE
102
{ACAD_REACTORS
330
C
102
}
330
C
100
AcDbXrecord
280
     1
  1
DWGPROPS COOKIE
  2

  3

  4

  6

  7

  8
Barry
  9

300
=
301
=
302
=
303
=
304
=
305
=
306
=
307
=
308
=
309
=
 40
0.0
 41
2460868.748114283
 42
2460868.748144433
  1

 90
        0
  0
LAYOUT
  5
1E
102
{ACAD_REACTORS
330
1A
102
}
330
1A
100
AcDbPlotSettings
  1

  2
none_device
  4

  6

 40
0.0
 41
0.0
 42
0.0
 43
0.0
 44
0.0
 45
0.0
 46
0.0
 47
0.0
 48
0.0
 49
0.0
140
0.0
141
0.0
142
1.0
143
1.0
 70
   688
 72
     1
 73
     0
 74
     5
  7

 75
    16
147
1.0
148
0.0
149
0.0
100
AcDbLayout
  1
Layout1
 70
     1
 71
     1
 10
0.0
 20
0.0
 11
420.0
 21
297.0
 12
0.0
 22
0.0
 32
0.0
 14
1.0000000000E+20
 24
1.0000000000E+20
 34
1.0000000000E+20
 15
-1.0000000000E+20
 25
-1.0000000000E+20
 35
-1.0000000000E+20
146
0.0
 13
0.0
 23
0.0
 33
0.0
 16
1.0
 26
0.0
 36
0.0
 17
0.0
 27
1.0
 37
0.0
 76
     0
330
1B
  0
LAYOUT
  5
26
102
{ACAD_REACTORS
330
1A
102
}
330
1A
100
AcDbPlotSettings
  1

  2
none_device
  4

  6

 40
0.0
 41
0.0
 42
0.0
 43
0.0
 44
0.0
 45
0.0
 46
0.0
 47
0.0
 48
0.0
 49
0.0
140
0.0
141
0.0
142
1.0
143
1.0
 70
   688
 72
     1
 73
     0
 74
     5
  7

 75
    16
147
1.0
148
0.0
149
0.0
100
AcDbLayout
  1
Layout2
 70
     1
 71
     2
 10
0.0
 20
0.0
 11
0.0
 21
0.0
 12
0.0
 22
0.0
 32
0.0
 14
0.0
 24
0.0
 34
0.0
 15
0.0
 25
0.0
 35
0.0
146
0.0
 13
0.0
 23
0.0
 33
0.0
 16
1.0
 26
0.0
 36
0.0
 17
0.0
 27
1.0
 37
0.0
 76
     0
330
23
  0
LAYOUT
  5
22
102
{ACAD_REACTORS
330
1A
102
}
330
1A
100
AcDbPlotSettings
  1

  2
none_device
  4
ANSI_A_(11.00_x_8.50_Inches)
  6

 40
6.35
 41
19.05
 42
6.35000508
 43
19.05000254
 44
279.4
 45
215.9
 46
133.34999746
 47
95.3948909952
 48
0.0
 49
0.0
140
0.0
141
0.0
142
0.0464917127
143
1.0
 70
  1696
 72
     0
 73
     0
 74
     0
  7

 75
     0
147
0.0179189148
148
-1300.4909072572
149
0.0
100
AcDbLayout
  1
Model
 70
     1
 71
     0
 10
0.0
 20
0.0
 11
420.0
 21
297.0
 12
0.0
 22
0.0
 32
0.0
 14
-70.0
 24
-96.0
 34
0.0
 15
70.0
 25
85.0
 35
0.0
146
0.0
 13
0.0
 23
0.0
 33
0.0
 16
1.0
 26
0.0
 36
0.0
 17
0.0
 27
1.0
 37
0.0
 76
     0
330
1F
331
29
  0
MLINESTYLE
  5
18
102
{ACAD_REACTORS
330
17
102
}
330
17
100
AcDbMlineStyle
  2
Standard
 70
     0
  3

 62
   256
 51
90.0
 52
90.0
 71
     2
 49
0.5
 62
   256
  6
BYLAYER
 49
-0.5
 62
   256
  6
BYLAYER
  0
ACDBPLACEHOLDER
  5
F
102
{ACAD_REACTORS
330
E
102
}
330
E
  0
SCALE
  5
48
102
{ACAD_REACTORS
330
47
102
}
330
47
100
AcDbScale
 70
     0
300
1:1
140
1.0
141
1.0
290
     1
  0
SCALE
  5
49
102
{ACAD_REACTORS
330
47
102
}
330
47
100
AcDbScale
 70
     0
300
1:2
140
1.0
141
2.0
290
     0
  0
SCALE
  5
4A
102
{ACAD_REACTORS
330
47
102
}
330
47
100
AcDbScale
 70
     0
300
1:4
140
1.0
141
4.0
290
     0
  0
SCALE
  5
4B
102
{ACAD_REACTORS
330
47
102
}
330
47
100
AcDbScale
 70
     0
300
1:5
140
1.0
141
5.0
290
     0
  0
SCALE
  5
4C
102
{ACAD_REACTORS
330
47
102
}
330
47
100
AcDbScale
 70
     0
300
1:8
140
1.0
141
8.0
290
     0
  0
SCALE
  5
4D
102
{ACAD_REACTORS
330
47
102
}
330
47
100
AcDbScale
 70
     0
300
1:10
140
1.0
141
10.0
290
     0
  0
SCALE
  5
4E
102
{ACAD_REACTORS
330
47
102
}
330
47
100
AcDbScale
 70
     0
300
1:16
140
1.0
141
16.0
290
     0
  0
SCALE
  5
4F
102
{ACAD_REACTORS
330
47
102
}
330
47
100
AcDbScale
 70
     0
300
1:20
140
1.0
141
20.0
290
     0
  0
SCALE
  5
50
102
{ACAD_REACTORS
330
47
102
}
330
47
100
AcDbScale
 70
     0
300
1:30
140
1.0
141
30.0
290
     0
  0
SCALE
  5
51
102
{ACAD_REACTORS
330
47
102
}
330
47
100
AcDbScale
 70
     0
300
1:40
140
1.0
141
40.0
290
     0
  0
SCALE
  5
52
102
{ACAD_REACTORS
330
47
102
}
330
47
100
AcDbScale
 70
     0
300
1:50
140
1.0
141
50.0
290
     0
  0
SCALE
  5
53
102
{ACAD_REACTORS
330
47
102
}
330
47
100
AcDbScale
 70
     0
300
1:100
140
1.0
141
100.0
290
     0
  0
SCALE
  5
54
102
{ACAD_REACTORS
330
47
102
}
330
47
100
AcDbScale
 70
     0
300
2:1
140
2.0
141
1.0
290
     0
  0
SCALE
  5
55
102
{ACAD_REACTORS
330
47
102
}
330
47
100
AcDbScale
 70
     0
300
4:1
140
4.0
141
1.0
290
     0
  0
SCALE
  5
56
102
{ACAD_REACTORS
330
47
102
}
330
47
100
AcDbScale
 70
     0
300
8:1
140
8.0
141
1.0
290
     0
  0
SCALE
  5
57
102
{ACAD_REACTORS
330
47
102
}
330
47
100
AcDbScale
 70
     0
300
10:1
140
10.0
141
1.0
290
     0
  0
SCALE
  5
58
102
{ACAD_REACTORS
330
47
102
}
330
47
100
AcDbScale
 70
     0
300
100:1
140
100.0
141
1.0
290
     0
  0
ENDSEC
  0
EOF
